<svg xmlns="http://www.w3.org/2000/svg" xmlns:xlink="http://www.w3.org/1999/xlink" viewBox="0 0 763.76 391.76"><defs><style>.cls-1{fill:url(#Áåçûìÿííûé_ãðàäèåíò_67);}.cls-2{fill:url(#Áåçûìÿííûé_ãðàäèåíò_33);}.cls-3{fill:url(#Áåçûìÿííûé_ãðàäèåíò_33-2);}.cls-4{fill:url(#Áåçûìÿííûé_ãðàäèåíò_33-3);}.cls-5{fill:#020230;opacity:0.6;}.cls-6{fill:url(#Áåçûìÿííûé_ãðàäèåíò_33-4);}.cls-7{fill:url(#Áåçûìÿííûé_ãðàäèåíò_113);}.cls-8{fill:url(#Áåçûìÿííûé_ãðàäèåíò_109);}.cls-9{fill:url(#Áåçûìÿííûé_ãðàäèåíò_343);}.cls-10,.cls-30{fill:#fff;}.cls-11,.cls-15{opacity:0.4;}.cls-12,.cls-15,.cls-16{fill:#06033e;}.cls-13{fill:url(#Áåçûìÿííûé_ãðàäèåíò_343-2);}.cls-14{fill:url(#Áåçûìÿííûé_ãðàäèåíò_441);}.cls-16,.cls-18,.cls-30{opacity:0.5;}.cls-17{fill:url(#Áåçûìÿííûé_ãðàäèåíò_343-3);}.cls-19{fill:#e8975b;}.cls-20{fill:#f8359e;}.cls-21{fill:url(#Áåçûìÿííûé_ãðàäèåíò_33-5);}.cls-22{fill:url(#Áåçûìÿííûé_ãðàäèåíò_199);}.cls-23{fill:url(#Áåçûìÿííûé_ãðàäèåíò_144);}.cls-24{fill:url(#Áåçûìÿííûé_ãðàäèåíò_483);}.cls-25{fill:url(#Áåçûìÿííûé_ãðàäèåíò_483-2);}.cls-26{fill:url(#Áåçûìÿííûé_ãðàäèåíò_193);}.cls-27{fill:url(#Áåçûìÿííûé_ãðàäèåíò_223);}.cls-28{fill:#0c0a78;}.cls-29{fill:url(#Áåçûìÿííûé_ãðàäèåíò_193-2);}</style><radialGradient id="Áåçûìÿííûé_ãðàäèåíò_67" cx="401.89" cy="123.73" r="733.48" gradientTransform="translate(-471.23 -206.12) scale(1.38 0.95)" gradientUnits="userSpaceOnUse"><stop offset="0" stop-color="#4c02f1"/><stop offset="0.01" stop-color="#4b02ef"/><stop offset="0.13" stop-color="#3903c4"/><stop offset="0.25" stop-color="#29039e"/><stop offset="0.38" stop-color="#1d0380"/><stop offset="0.51" stop-color="#130468"/><stop offset="0.65" stop-color="#0c0457"/><stop offset="0.81" stop-color="#07044d"/><stop offset="1" stop-color="#06044a"/></radialGradient><linearGradient id="Áåçûìÿííûé_ãðàäèåíò_33" x1="549.47" y1="293.57" x2="582.08" y2="293.57" gradientUnits="userSpaceOnUse"><stop offset="0" stop-color="#e39a65"/><stop offset="1" stop-color="#e95f8d"/></linearGradient><linearGradient id="Áåçûìÿííûé_ãðàäèåíò_33-2" x1="504.82" y1="248.88" x2="559.6" y2="248.88" xlink:href="#Áåçûìÿííûé_ãðàäèåíò_33"/><linearGradient id="Áåçûìÿííûé_ãðàäèåíò_33-3" x1="143.6" y1="267.23" x2="198.38" y2="267.23" xlink:href="#Áåçûìÿííûé_ãðàäèåíò_33"/><linearGradient id="Áåçûìÿííûé_ãðàäèåíò_33-4" x1="207.37" y1="263.72" x2="499.73" y2="263.72" xlink:href="#Áåçûìÿííûé_ãðàäèåíò_33"/><radialGradient id="Áåçûìÿííûé_ãðàäèåíò_113" cx="368.86" cy="47.26" r="223.3" gradientUnits="userSpaceOnUse"><stop offset="0" stop-color="#e39a65"/><stop offset="0.47" stop-color="#a92ffb"/><stop offset="0.59" stop-color="#891cfb"/><stop offset="0.74" stop-color="#6507fa"/><stop offset="0.8" stop-color="#0d0c6f"/></radialGradient><radialGradient id="Áåçûìÿííûé_ãðàäèåíò_109" cx="232.29" cy="226.58" r="244.17" gradientUnits="userSpaceOnUse"><stop offset="0" stop-color="#e39a65"/><stop offset="0.47" stop-color="#a92ffb"/><stop offset="0.57" stop-color="#891cfb"/><stop offset="0.68" stop-color="#6507fa"/><stop offset="0.74" stop-color="#0d0c6f"/></radialGradient><radialGradient id="Áåçûìÿííûé_ãðàäèåíò_343" cx="254.74" cy="177.58" r="218.96" gradientUnits="userSpaceOnUse"><stop offset="0" stop-color="#e39a65"/><stop offset="0.47" stop-color="#a92ffb"/><stop offset="0.59" stop-color="#891cfb"/><stop offset="0.73" stop-color="#6507fa"/><stop offset="1" stop-color="#3919bb"/></radialGradient><radialGradient id="Áåçûìÿííûé_ãðàäèåíò_343-2" cx="309.29" cy="93.84" r="223.34" xlink:href="#Áåçûìÿííûé_ãðàäèåíò_343"/><linearGradient id="Áåçûìÿííûé_ãðàäèåíò_441" x1="333.84" y1="152.47" x2="512.8" y2="152.47" gradientUnits="userSpaceOnUse"><stop offset="0" stop-color="#3919bb"/><stop offset="1" stop-color="#6507fa"/></linearGradient><radialGradient id="Áåçûìÿííûé_ãðàäèåíò_343-3" cx="227.76" cy="46.15" r="347.85" xlink:href="#Áåçûìÿííûé_ãðàäèåíò_343"/><linearGradient id="Áåçûìÿííûé_ãðàäèåíò_33-5" x1="211.82" y1="176.95" x2="288.6" y2="176.95" xlink:href="#Áåçûìÿííûé_ãðàäèåíò_33"/><radialGradient id="Áåçûìÿííûé_ãðàäèåíò_199" cx="218.63" cy="114.32" r="165.35" gradientUnits="userSpaceOnUse"><stop offset="0" stop-color="#e39a65"/><stop offset="0.15" stop-color="#a92ffb"/><stop offset="0.41" stop-color="#3919bb"/><stop offset="0.93" stop-color="#3919bb"/></radialGradient><linearGradient id="Áåçûìÿííûé_ãðàäèåíò_144" x1="221.55" y1="93.84" x2="280.86" y2="93.84" gradientUnits="userSpaceOnUse"><stop offset="0" stop-color="#e39a65"/><stop offset="0.25" stop-color="#a92ffb"/><stop offset="0.56" stop-color="#3919bb"/></linearGradient><linearGradient id="Áåçûìÿííûé_ãðàäèåíò_483" x1="227.12" y1="90.83" x2="275.3" y2="90.83" gradientUnits="userSpaceOnUse"><stop offset="0" stop-color="#4f1fec"/><stop offset="1" stop-color="#a92ffb"/></linearGradient><linearGradient id="Áåçûìÿííûé_ãðàäèåíò_483-2" x1="225.97" y1="90.83" x2="274.16" y2="90.83" xlink:href="#Áåçûìÿííûé_ãðàäèåíò_483"/><linearGradient id="Áåçûìÿííûé_ãðàäèåíò_193" x1="227.12" y1="84.47" x2="287.87" y2="84.47" gradientUnits="userSpaceOnUse"><stop offset="0" stop-color="#131060"/><stop offset="0.19" stop-color="#141062"/><stop offset="0.28" stop-color="#19106a"/><stop offset="0.36" stop-color="#221078"/><stop offset="0.42" stop-color="#2e0f8b"/><stop offset="0.48" stop-color="#3e0fa3"/><stop offset="0.54" stop-color="#510ec2"/><stop offset="0.58" stop-color="#680de5"/><stop offset="0.61" stop-color="#740df8"/><stop offset="0.62" stop-color="#7a14f0"/><stop offset="0.68" stop-color="#9b3cc3"/><stop offset="0.75" stop-color="#b75d9d"/><stop offset="0.81" stop-color="#cc7680"/><stop offset="0.88" stop-color="#dc886c"/><stop offset="0.94" stop-color="#e5935f"/><stop offset="1" stop-color="#e8975b"/></linearGradient><radialGradient id="Áåçûìÿííûé_ãðàäèåíò_223" cx="214.15" cy="77.06" r="108.16" gradientUnits="userSpaceOnUse"><stop offset="0" stop-color="#e39a65"/><stop offset="0.25" stop-color="#a92ffb"/><stop offset="0.74" stop-color="#3919bb"/></radialGradient><linearGradient id="Áåçûìÿííûé_ãðàäèåíò_193-2" x1="247.39" y1="104.08" x2="255.8" y2="104.08" xlink:href="#Áåçûìÿííûé_ãðàäèåíò_193"/></defs><g id="Capa_2" data-name="Capa 2"><g id="Ñëîé_1" data-name="Ñëîé 1"><rect class="cls-1" width="763.76" height="391.76"/><path class="cls-2" d="M565.78,303.16a7,7,0,0,1-3.49-.93l-11.73-6.78a2.17,2.17,0,0,1,0-3.76l11.73-6.78a7,7,0,0,1,7,0L581,291.69a2.17,2.17,0,0,1,0,3.76l-11.73,6.78A7,7,0,0,1,565.78,303.16Zm0-17.32a5.16,5.16,0,0,0-2.56.68l-11.73,6.78a.31.31,0,0,0,0,.54l11.74,6.78h0a5.1,5.1,0,0,0,5.1,0l11.73-6.78a.31.31,0,0,0,0-.54l-11.73-6.78A5.15,5.15,0,0,0,565.78,285.84Z"/><path class="cls-3" d="M532.21,264.71a11.3,11.3,0,0,1-5.66-1.51l-20.19-11.66a3.07,3.07,0,0,1,0-5.32l20.19-11.66a11.31,11.31,0,0,1,11.31,0l20.2,11.66a3.07,3.07,0,0,1,0,5.32l-20.2,11.66A11.36,11.36,0,0,1,532.21,264.71Zm-4.73-3.12a9.49,9.49,0,0,0,9.45,0l20.2-11.66a1.21,1.21,0,0,0,0-2.1l-20.2-11.66a9.49,9.49,0,0,0-9.45,0l-20.19,11.66a1.19,1.19,0,0,0-.61,1,1.17,1.17,0,0,0,.61,1Z"/><path class="cls-4" d="M171,283.06a11.3,11.3,0,0,1-5.66-1.51l-20.2-11.66a3.08,3.08,0,0,1,0-5.32l20.2-11.66a11.36,11.36,0,0,1,11.31,0l20.2,11.66a3.07,3.07,0,0,1,0,5.32l-20.2,11.66A11.26,11.26,0,0,1,171,283.06Zm0-29.8a9.47,9.47,0,0,0-4.73,1.26l-20.2,11.66a1.22,1.22,0,0,0,0,2.1l20.2,11.66h0a9.49,9.49,0,0,0,9.45,0l20.2-11.66a1.22,1.22,0,0,0,0-2.1l-20.2-11.66A9.46,9.46,0,0,0,171,253.26Z"/><path class="cls-5" d="M375.53,333.94,231.1,250.55c-2.1-1.22-1.84-3.34.59-4.74l92.7-53.52c2.43-1.41,6.11-1.56,8.21-.34L477,275.33c2.11,1.22,1.84,3.34-.59,4.75l-92.69,53.51C381.31,335,377.64,335.15,375.53,333.94Z"/><path class="cls-6" d="M378.84,349a9.13,9.13,0,0,1-4.54-1.07h0L209.46,252.76a3.69,3.69,0,0,1-2.09-3.16c0-1.45,1-2.86,2.76-3.87L322.5,179.9c3.08-1.78,7.6-2,10.3-.39l164.84,95.17a3.67,3.67,0,0,1,2.09,3.15c0,1.45-1,2.86-2.76,3.87L384.61,347.53A11.78,11.78,0,0,1,378.84,349ZM328.28,180.31a10,10,0,0,0-4.85,1.2L211.07,247.34c-1.15.67-1.84,1.51-1.84,2.26a2,2,0,0,0,1.16,1.54l164.84,95.17h0c2.1,1.22,6,1,8.44-.39L496,280.09c1.15-.66,1.84-1.51,1.84-2.26a2,2,0,0,0-1.16-1.54L331.88,181.12A7.45,7.45,0,0,0,328.28,180.31Z"/><path class="cls-7" d="M515.4,135.54,371.54,52.48a3.72,3.72,0,0,0-2.94-.42h0l-2.67.93.94.22a4.81,4.81,0,0,0-.88,1.65L333.45,160.49a6.36,6.36,0,0,0,2.64,7.1L480,250.65a4.58,4.58,0,0,0,1.06.44l-.36.77,2.55-.89h0a4.07,4.07,0,0,0,2.31-2.7L518,142.64A6.37,6.37,0,0,0,515.4,135.54Z"/><path class="cls-8" d="M474.8,254.6l.05.06-142.1-82c-2.09-1.21-5.74-1.06-8.15.34l-91.81,53-3.06-1.17.86,4.3h0A2.55,2.55,0,0,0,232,230.8l143.41,82.8c2.09,1.21,5.74,1.06,8.16-.33l92-53.15a3.66,3.66,0,0,0,1.95-2.27h0l.88-4.18Z"/><path class="cls-9" d="M375.53,309.83,231.1,226.44c-2.1-1.22-1.84-3.34.59-4.74l92.7-53.52c2.43-1.41,6.11-1.56,8.21-.34L477,251.22c2.11,1.22,1.84,3.34-.59,4.75l-92.69,53.51C381.31,310.89,377.64,311,375.53,309.83Z"/><path class="cls-10" d="M476.44,254.84l-92.69,53.52c-2.44,1.4-6.11,1.56-8.22.34L231.1,225.31a2.64,2.64,0,0,1-1.31-1.49,2.26,2.26,0,0,0,1.31,2.62l144.43,83.39c2.11,1.21,5.78,1.06,8.22-.35L476.44,256c1.6-.93,2.24-2.16,1.9-3.25A3.74,3.74,0,0,1,476.44,254.84Z"/><g class="cls-11"><path class="cls-12" d="M300,212.91l-4.87-2.82c-.39-.23-.35-.62.11-.88l5.75-3.32a1.7,1.7,0,0,1,1.53-.07l4.88,2.82c.39.22.34.62-.11.88l-5.76,3.32A1.73,1.73,0,0,1,300,212.91Z"/><path class="cls-12" d="M307.52,217.25l-4.87-2.81c-.39-.23-.35-.62.11-.88l5.75-3.33a1.69,1.69,0,0,1,1.53-.06l4.88,2.82c.39.22.34.62-.11.88l-5.76,3.32A1.69,1.69,0,0,1,307.52,217.25Z"/><path class="cls-12" d="M315.05,221.6l-4.87-2.81c-.39-.23-.35-.63.11-.89l5.75-3.32a1.69,1.69,0,0,1,1.53-.06l4.88,2.81c.39.23.34.62-.11.88l-5.76,3.33A1.69,1.69,0,0,1,315.05,221.6Z"/><path class="cls-12" d="M325.47,218l-4.88-2.81c-.39-.23-.34-.63.11-.89l4.83-2.79a1.69,1.69,0,0,1,1.53-.06l4.88,2.82c.39.22.34.62-.11.88L327,218A1.69,1.69,0,0,1,325.47,218Z"/><path class="cls-12" d="M333,222.36l-4.88-2.82c-.39-.22-.34-.62.11-.88l4.83-2.79a1.69,1.69,0,0,1,1.53-.06l4.88,2.81c.39.23.34.62-.11.89l-4.83,2.78A1.7,1.7,0,0,1,333,222.36Z"/><path class="cls-12" d="M340.53,226.71l-4.88-2.82c-.39-.23-.34-.62.11-.88l4.83-2.79a1.69,1.69,0,0,1,1.53-.06L347,223c.39.23.34.62-.11.88l-4.83,2.79A1.73,1.73,0,0,1,340.53,226.71Z"/><path class="cls-12" d="M348.06,231.05l-4.88-2.81c-.39-.23-.34-.62.11-.88l4.83-2.79a1.73,1.73,0,0,1,1.53-.07l4.88,2.82c.39.22.34.62-.11.88L349.59,231A1.69,1.69,0,0,1,348.06,231.05Z"/><path class="cls-12" d="M355.59,235.4l-4.88-2.81c-.39-.23-.34-.63.11-.89l4.83-2.79a1.73,1.73,0,0,1,1.53-.06l4.88,2.82c.39.22.34.62-.11.88l-4.83,2.79A1.69,1.69,0,0,1,355.59,235.4Z"/><path class="cls-12" d="M363.12,239.75l-4.88-2.82c-.39-.22-.34-.62.11-.88l4.83-2.79a1.69,1.69,0,0,1,1.53-.06l4.88,2.81c.39.23.34.62-.11.89l-4.83,2.79A1.72,1.72,0,0,1,363.12,239.75Z"/><path class="cls-12" d="M370.65,244.1l-4.88-2.82c-.39-.22-.34-.62.11-.88l4.83-2.79a1.69,1.69,0,0,1,1.53-.06l4.88,2.81c.39.23.34.62-.11.88L372.18,244A1.73,1.73,0,0,1,370.65,244.1Z"/><path class="cls-12" d="M378.18,248.44l-4.88-2.81c-.39-.23-.34-.62.11-.88l4.84-2.79a1.71,1.71,0,0,1,1.52-.07l4.88,2.82c.39.23.34.62-.11.88l-4.83,2.79A1.69,1.69,0,0,1,378.18,248.44Z"/><path class="cls-12" d="M385.71,252.79,380.83,250c-.39-.23-.34-.62.11-.89l4.84-2.79a1.7,1.7,0,0,1,1.52-.06l4.88,2.82c.39.22.34.62-.11.88l-4.83,2.79A1.69,1.69,0,0,1,385.71,252.79Z"/><path class="cls-12" d="M393.24,257.14l-4.88-2.82c-.39-.22-.34-.62.11-.88l4.84-2.79a1.67,1.67,0,0,1,1.52-.06l4.88,2.81c.39.23.34.63-.11.89l-4.83,2.79A1.69,1.69,0,0,1,393.24,257.14Z"/><path class="cls-12" d="M336.56,216l-4.87-2.81c-.39-.23-.34-.62.11-.88l4.83-2.79a1.69,1.69,0,0,1,1.53-.07l4.87,2.82c.39.22.34.62-.11.88l-4.83,2.79A1.69,1.69,0,0,1,336.56,216Z"/><path class="cls-12" d="M328.92,211.54,324,208.72c-.39-.22-.34-.62.11-.88l4.84-2.79a1.67,1.67,0,0,1,1.52-.06l4.88,2.82c.39.22.34.62-.11.88l-4.83,2.79A1.69,1.69,0,0,1,328.92,211.54Z"/><path class="cls-12" d="M321.27,207.12l-10.51-6.06c-.39-.23-.34-.62.11-.89l4.83-2.78a1.7,1.7,0,0,1,1.53-.07l10.5,6.07c.4.22.35.62-.11.88l-4.83,2.79A1.67,1.67,0,0,1,321.27,207.12Z"/><path class="cls-12" d="M326.62,201.75l-8.53-4.93c-.39-.22-.34-.62.11-.88l4.84-2.79a1.67,1.67,0,0,1,1.52-.06l8.53,4.92c.39.23.34.62-.11.88l-4.84,2.79A1.71,1.71,0,0,1,326.62,201.75Z"/><path class="cls-12" d="M344.09,220.3l-4.87-2.82c-.39-.22-.34-.62.11-.88l4.83-2.79a1.69,1.69,0,0,1,1.53-.06l4.87,2.82c.39.22.34.62-.11.88l-4.83,2.79A1.69,1.69,0,0,1,344.09,220.3Z"/><path class="cls-12" d="M351.62,224.65l-4.87-2.82c-.39-.22-.34-.62.11-.88l4.83-2.79a1.69,1.69,0,0,1,1.53-.06l4.87,2.81c.39.23.35.62-.11.88l-4.83,2.79A1.69,1.69,0,0,1,351.62,224.65Z"/><path class="cls-12" d="M359.15,229l-4.87-2.82c-.39-.23-.34-.62.11-.88l4.83-2.79a1.69,1.69,0,0,1,1.53-.06l4.87,2.81c.39.23.35.62-.11.88l-4.83,2.79A1.73,1.73,0,0,1,359.15,229Z"/><path class="cls-12" d="M366.68,233.34l-4.87-2.81c-.39-.23-.34-.62.11-.88l4.83-2.79a1.73,1.73,0,0,1,1.53-.07l4.87,2.82c.39.22.35.62-.11.88l-4.83,2.79A1.69,1.69,0,0,1,366.68,233.34Z"/><path class="cls-12" d="M374.22,237.69l-4.88-2.81c-.39-.23-.34-.63.11-.89l4.83-2.79a1.69,1.69,0,0,1,1.53-.06l4.87,2.82c.4.22.35.62-.11.88l-4.83,2.79A1.67,1.67,0,0,1,374.22,237.69Z"/><path class="cls-12" d="M381.75,242l-4.88-2.82c-.39-.22-.34-.62.11-.88l4.83-2.79a1.69,1.69,0,0,1,1.53-.06l4.87,2.81c.4.23.35.62-.11.89L383.27,242A1.67,1.67,0,0,1,381.75,242Z"/><path class="cls-12" d="M389.28,246.39l-4.88-2.82c-.39-.23-.34-.62.11-.88l4.83-2.79a1.69,1.69,0,0,1,1.53-.06l4.87,2.81c.4.23.35.62-.11.88l-4.83,2.79A1.71,1.71,0,0,1,389.28,246.39Z"/><path class="cls-12" d="M396.81,250.73l-4.88-2.81c-.39-.23-.34-.62.11-.88l4.83-2.79a1.73,1.73,0,0,1,1.53-.07l4.87,2.82c.4.22.35.62-.11.88l-4.83,2.79A1.67,1.67,0,0,1,396.81,250.73Z"/><path class="cls-12" d="M404.34,255.08l-4.88-2.81c-.39-.23-.34-.63.11-.89l4.83-2.79a1.69,1.69,0,0,1,1.53-.06l4.87,2.82c.4.22.35.62-.1.88L405.86,255A1.67,1.67,0,0,1,404.34,255.08Z"/><path class="cls-12" d="M417.72,262.81l-10.64-6.14c-.39-.23-.34-.62.11-.88L412,253a1.67,1.67,0,0,1,1.52-.07l10.64,6.15c.39.22.34.62-.11.88l-4.83,2.79A1.69,1.69,0,0,1,417.72,262.81Z"/><path class="cls-12" d="M432.38,254.35l-9-5.19c-.39-.23-.34-.62.11-.88l4.83-2.79a1.69,1.69,0,0,1,1.53-.06l9,5.18c.39.23.34.62-.11.88l-4.83,2.79A1.73,1.73,0,0,1,432.38,254.35Z"/><path class="cls-12" d="M357.28,219.45l-4.88-2.82c-.39-.22-.34-.62.11-.88l4.84-2.79a1.67,1.67,0,0,1,1.52-.06l4.88,2.81c.39.23.34.63-.11.89l-4.83,2.79A1.69,1.69,0,0,1,357.28,219.45Z"/><path class="cls-12" d="M349.56,215l-4.87-2.81c-.39-.23-.35-.62.11-.88l4.83-2.79a1.73,1.73,0,0,1,1.53-.07l4.87,2.82c.39.22.34.62-.11.88l-4.83,2.79A1.69,1.69,0,0,1,349.56,215Z"/><path class="cls-12" d="M341.85,210.54,337,207.72c-.39-.22-.34-.62.11-.88l4.83-2.79a1.69,1.69,0,0,1,1.53-.06l4.87,2.81c.4.23.35.62-.11.89l-4.83,2.78A1.67,1.67,0,0,1,341.85,210.54Z"/><path class="cls-12" d="M334.13,206.08l-4.88-2.81c-.39-.23-.34-.62.11-.89l4.83-2.78a1.7,1.7,0,0,1,1.53-.07l4.88,2.82c.39.22.34.62-.11.88L335.66,206A1.69,1.69,0,0,1,334.13,206.08Z"/><path class="cls-12" d="M364.81,223.8,359.94,221c-.4-.22-.35-.62.1-.88l4.84-2.79a1.67,1.67,0,0,1,1.52-.06l4.88,2.81c.39.23.34.62-.11.88l-4.83,2.79A1.73,1.73,0,0,1,364.81,223.8Z"/><path class="cls-12" d="M372.34,228.14l-4.87-2.81c-.4-.23-.35-.62.11-.88l4.83-2.79a1.71,1.71,0,0,1,1.52-.07l4.88,2.82c.39.23.34.62-.11.88l-4.83,2.79A1.69,1.69,0,0,1,372.34,228.14Z"/><path class="cls-12" d="M379.87,232.49,375,229.68c-.4-.23-.35-.62.11-.88l4.83-2.79a1.67,1.67,0,0,1,1.52-.07l4.88,2.82c.39.22.34.62-.11.88l-4.83,2.79A1.69,1.69,0,0,1,379.87,232.49Z"/><path class="cls-12" d="M387.4,236.84,382.53,234c-.4-.22-.35-.62.11-.88l4.83-2.79a1.67,1.67,0,0,1,1.52-.06l4.88,2.82c.39.22.34.62-.11.88l-4.83,2.79A1.69,1.69,0,0,1,387.4,236.84Z"/><path class="cls-12" d="M394.93,241.19l-4.87-2.82c-.4-.22-.35-.62.11-.88L395,234.7a1.67,1.67,0,0,1,1.52-.06l4.88,2.81c.39.23.34.62-.11.88l-4.83,2.79A1.7,1.7,0,0,1,394.93,241.19Z"/><path class="cls-12" d="M402.46,245.53l-4.87-2.81c-.39-.23-.35-.62.11-.88l4.83-2.79a1.69,1.69,0,0,1,1.53-.06l4.87,2.81c.39.23.34.62-.11.88L404,245.47A1.69,1.69,0,0,1,402.46,245.53Z"/><path class="cls-12" d="M410,249.88l-4.87-2.81c-.39-.23-.35-.62.11-.88l4.83-2.79a1.69,1.69,0,0,1,1.53-.07l4.87,2.82c.39.22.34.62-.11.88l-4.83,2.79A1.69,1.69,0,0,1,410,249.88Z"/><path class="cls-12" d="M417.52,254.23l-4.87-2.82c-.39-.22-.35-.62.11-.88l4.83-2.79a1.69,1.69,0,0,1,1.53-.06L424,250.5c.39.22.34.62-.11.88l-4.83,2.79A1.69,1.69,0,0,1,417.52,254.23Z"/><path class="cls-12" d="M425.05,258.58l-4.87-2.82c-.39-.22-.35-.62.11-.88l4.83-2.79a1.69,1.69,0,0,1,1.53-.06l4.87,2.81c.39.23.34.62-.11.88l-4.83,2.79A1.69,1.69,0,0,1,425.05,258.58Z"/><path class="cls-12" d="M353.32,208.7l-4.88-2.82c-.39-.23-.34-.62.11-.88l4.83-2.79a1.69,1.69,0,0,1,1.53-.06l4.87,2.81c.4.23.35.62-.11.88l-4.83,2.79A1.71,1.71,0,0,1,353.32,208.7Z"/><path class="cls-12" d="M345.82,204.37,341,201.55c-.39-.22-.35-.62.11-.88l4.83-2.79a1.69,1.69,0,0,1,1.53-.06l4.87,2.82c.39.22.34.62-.11.88l-4.83,2.79A1.69,1.69,0,0,1,345.82,204.37Z"/><path class="cls-12" d="M338.33,200l-4.88-2.81c-.39-.23-.34-.62.11-.88l4.84-2.79a1.71,1.71,0,0,1,1.52-.07l4.88,2.82c.39.23.34.62-.11.88L339.86,200A1.69,1.69,0,0,1,338.33,200Z"/><path class="cls-12" d="M330.84,195.72,326,192.9c-.39-.22-.34-.62.11-.88l4.83-2.79a1.69,1.69,0,0,1,1.53-.06l4.88,2.81c.39.23.34.62-.11.89l-4.84,2.78A1.67,1.67,0,0,1,330.84,195.72Z"/><path class="cls-12" d="M338.54,191.27l-4.87-2.82c-.4-.22-.35-.62.11-.88l1.59-.92a1.69,1.69,0,0,1,1.53-.06l4.88,2.81c.39.23.34.62-.11.88l-1.6.93A1.69,1.69,0,0,1,338.54,191.27Z"/><path class="cls-12" d="M348.32,196.91l-4.88-2.81c-.39-.23-.34-.62.11-.88l1.6-.92a1.7,1.7,0,0,1,1.53-.07l4.87,2.82c.4.22.35.62-.1.88l-1.6.92A1.69,1.69,0,0,1,348.32,196.91Z"/><path class="cls-12" d="M355.78,201.22l-4.87-2.81c-.4-.23-.35-.62.11-.88l1.59-.93a1.69,1.69,0,0,1,1.53-.06l4.88,2.82c.39.22.34.62-.11.88l-1.6.92A1.69,1.69,0,0,1,355.78,201.22Z"/><path class="cls-12" d="M363.24,205.53l-4.87-2.81c-.39-.23-.34-.63.11-.89l1.59-.92a1.69,1.69,0,0,1,1.53-.06l4.88,2.81c.39.23.34.62-.11.89l-1.6.92A1.69,1.69,0,0,1,363.24,205.53Z"/><path class="cls-12" d="M370.71,209.84,365.83,207c-.39-.22-.34-.62.11-.88l1.6-.92a1.67,1.67,0,0,1,1.52-.06l4.88,2.81c.39.23.34.62-.11.88l-1.6.93A1.7,1.7,0,0,1,370.71,209.84Z"/><path class="cls-12" d="M412.36,233.89l-4.87-2.82c-.4-.22-.35-.62.11-.88l1.59-.92a1.69,1.69,0,0,1,1.53-.06L415.6,232c.39.23.34.62-.11.88l-1.6.93A1.69,1.69,0,0,1,412.36,233.89Z"/><path class="cls-12" d="M419.82,238.2,415,235.38c-.39-.22-.34-.62.11-.88l1.59-.92a1.73,1.73,0,0,1,1.53-.07l4.88,2.82c.39.23.34.62-.11.88l-1.6.92A1.73,1.73,0,0,1,419.82,238.2Z"/><path class="cls-12" d="M427.29,242.51l-4.88-2.82c-.39-.23-.34-.62.11-.88l1.6-.92a1.67,1.67,0,0,1,1.52-.07l4.88,2.82c.39.22.34.62-.11.88l-1.6.92A1.71,1.71,0,0,1,427.29,242.51Z"/><path class="cls-12" d="M434.75,246.81,429.87,244c-.39-.23-.34-.62.11-.88l1.6-.93a1.69,1.69,0,0,1,1.53-.06L438,245c.39.22.34.62-.11.88l-1.6.92A1.67,1.67,0,0,1,434.75,246.81Z"/><path class="cls-12" d="M360.85,213,356,210.23c-.39-.23-.34-.62.11-.88l4.83-2.79a1.73,1.73,0,0,1,1.53-.07l4.87,2.82c.4.22.35.62-.1.88L362.37,213A1.67,1.67,0,0,1,360.85,213Z"/><path class="cls-12" d="M368.38,217.39l-4.88-2.81c-.39-.23-.34-.63.11-.89l4.83-2.79a1.72,1.72,0,0,1,1.53-.06l4.88,2.82c.39.22.34.62-.11.88l-4.84,2.79A1.67,1.67,0,0,1,368.38,217.39Z"/><path class="cls-12" d="M375.91,221.74,371,218.92c-.39-.22-.34-.62.11-.88l4.83-2.79a1.69,1.69,0,0,1,1.53-.06l4.88,2.81c.39.23.34.62-.11.89l-4.84,2.79A1.7,1.7,0,0,1,375.91,221.74Z"/><path class="cls-12" d="M383.44,226.09l-4.88-2.82c-.39-.23-.34-.62.11-.88l4.83-2.79a1.69,1.69,0,0,1,1.53-.06l4.88,2.81c.39.23.34.62-.11.88L385,226A1.71,1.71,0,0,1,383.44,226.09Z"/><path class="cls-12" d="M391,230.43l-4.88-2.81c-.39-.23-.34-.62.11-.88L391,224a1.73,1.73,0,0,1,1.53-.07l4.88,2.82c.39.23.34.62-.11.88l-4.84,2.79A1.67,1.67,0,0,1,391,230.43Z"/><path class="cls-12" d="M398.5,234.78,393.62,232c-.39-.23-.34-.62.11-.89l4.83-2.79a1.72,1.72,0,0,1,1.53-.06l4.88,2.82c.39.22.34.62-.11.88L400,234.72A1.67,1.67,0,0,1,398.5,234.78Z"/><path class="cls-12" d="M406,239.13l-4.88-2.82c-.39-.22-.34-.62.11-.88l4.83-2.79a1.69,1.69,0,0,1,1.53-.06l4.88,2.81c.39.23.34.63-.11.89l-4.83,2.79A1.69,1.69,0,0,1,406,239.13Z"/><path class="cls-12" d="M413.56,243.48l-4.88-2.82c-.39-.22-.34-.62.11-.88l4.83-2.79a1.69,1.69,0,0,1,1.53-.06l4.88,2.81c.39.23.34.62-.11.88l-4.83,2.79A1.73,1.73,0,0,1,413.56,243.48Z"/><path class="cls-12" d="M421.09,247.82,416.21,245c-.39-.23-.34-.62.11-.88l4.83-2.79a1.73,1.73,0,0,1,1.53-.07l4.88,2.82c.39.23.34.62-.11.88l-4.83,2.79A1.69,1.69,0,0,1,421.09,247.82Z"/><path class="cls-12" d="M317.79,213.58l-14.36-8.29c-.39-.23-.34-.62.11-.88l4.83-2.79a1.73,1.73,0,0,1,1.53-.07l14.36,8.3c.39.22.35.62-.11.88l-4.83,2.79A1.69,1.69,0,0,1,317.79,213.58Z"/><path class="cls-12" d="M410.31,267l-14.37-8.29c-.39-.23-.34-.62.11-.88l4.84-2.79a1.67,1.67,0,0,1,1.52-.06l14.36,8.29c.4.22.35.62-.11.88l-4.83,2.79A1.67,1.67,0,0,1,410.31,267Z"/><path class="cls-12" d="M380.19,259.21l-4.88-2.82c-.39-.22-.34-.62.11-.88l5.76-3.32a1.73,1.73,0,0,1,1.53-.07l4.87,2.82c.4.23.35.62-.11.88l-5.75,3.32A1.7,1.7,0,0,1,380.19,259.21Z"/><path class="cls-12" d="M325.51,227.64l-7.8-4.51c-.39-.22-.34-.62.11-.88l5.75-3.32a1.69,1.69,0,0,1,1.53-.06l7.8,4.5c.39.22.34.62-.11.88L327,227.57A1.71,1.71,0,0,1,325.51,227.64Z"/><path class="cls-12" d="M372.94,255l-7.8-4.5c-.39-.23-.35-.62.11-.89l5.75-3.32a1.69,1.69,0,0,1,1.53-.06l7.8,4.5c.39.23.34.62-.11.88L374.46,255A1.67,1.67,0,0,1,372.94,255Z"/><path class="cls-12" d="M336.37,233.91l-7.8-4.5c-.39-.23-.34-.62.11-.89l5.76-3.32a1.67,1.67,0,0,1,1.52-.06l7.8,4.5c.39.23.35.62-.11.88l-5.75,3.33A1.72,1.72,0,0,1,336.37,233.91Z"/><path class="cls-12" d="M336,225.17l33.9,19.57c.42.25.42.64,0,.88L364.05,249a1.69,1.69,0,0,1-1.52,0l-33.9-19.57Z"/><path class="cls-12" d="M401.24,267.09l5.43,3.14c.32.18.28.51-.09.72l-2.36,1.36a1.38,1.38,0,0,1-1.25.05l-5.43-3.14c-.32-.18-.28-.5.09-.72l2.35-1.36A1.44,1.44,0,0,1,401.24,267.09Z"/><path class="cls-12" d="M393.64,262.71l5.44,3.13c.32.19.28.51-.09.73l-2.36,1.36a1.42,1.42,0,0,1-1.25.05L390,264.84c-.32-.18-.28-.51.09-.72l2.35-1.36A1.38,1.38,0,0,1,393.64,262.71Z"/><path class="cls-12" d="M386.11,258.36l5.44,3.14c.32.18.28.5-.09.72l-2.36,1.36a1.42,1.42,0,0,1-1.25.05l-5.43-3.14c-.32-.18-.28-.51.09-.72l2.35-1.36A1.38,1.38,0,0,1,386.11,258.36Z"/><path class="cls-12" d="M397.8,260.31l5.43,3.13c.33.19.28.51-.09.73l-2.35,1.35a1.39,1.39,0,0,1-1.25.06l-5.43-3.14c-.32-.18-.28-.51.09-.72l2.35-1.36A1.35,1.35,0,0,1,397.8,260.31Z"/></g><g class="cls-11"><path class="cls-12" d="M300,212.91l-4.87-2.82c-.39-.23-.35-.62.11-.88l5.75-3.32a1.7,1.7,0,0,1,1.53-.07l4.88,2.82c.39.22.34.62-.11.88l-5.76,3.32A1.73,1.73,0,0,1,300,212.91Z"/><path class="cls-12" d="M307.52,217.25l-4.87-2.81c-.39-.23-.35-.62.11-.88l5.75-3.33a1.69,1.69,0,0,1,1.53-.06l4.88,2.82c.39.22.34.62-.11.88l-5.76,3.32A1.69,1.69,0,0,1,307.52,217.25Z"/><path class="cls-12" d="M315.05,221.6l-4.87-2.81c-.39-.23-.35-.63.11-.89l5.75-3.32a1.69,1.69,0,0,1,1.53-.06l4.88,2.81c.39.23.34.62-.11.88l-5.76,3.33A1.69,1.69,0,0,1,315.05,221.6Z"/><path class="cls-12" d="M325.47,218l-4.88-2.81c-.39-.23-.34-.63.11-.89l4.83-2.79a1.69,1.69,0,0,1,1.53-.06l4.88,2.82c.39.22.34.62-.11.88L327,218A1.69,1.69,0,0,1,325.47,218Z"/><path class="cls-12" d="M333,222.36l-4.88-2.82c-.39-.22-.34-.62.11-.88l4.83-2.79a1.69,1.69,0,0,1,1.53-.06l4.88,2.81c.39.23.34.62-.11.89l-4.83,2.78A1.7,1.7,0,0,1,333,222.36Z"/><path class="cls-12" d="M340.53,226.71l-4.88-2.82c-.39-.23-.34-.62.11-.88l4.83-2.79a1.69,1.69,0,0,1,1.53-.06L347,223c.39.23.34.62-.11.88l-4.83,2.79A1.73,1.73,0,0,1,340.53,226.71Z"/><path class="cls-12" d="M348.06,231.05l-4.88-2.81c-.39-.23-.34-.62.11-.88l4.83-2.79a1.73,1.73,0,0,1,1.53-.07l4.88,2.82c.39.22.34.62-.11.88L349.59,231A1.69,1.69,0,0,1,348.06,231.05Z"/><path class="cls-12" d="M355.59,235.4l-4.88-2.81c-.39-.23-.34-.63.11-.89l4.83-2.79a1.73,1.73,0,0,1,1.53-.06l4.88,2.82c.39.22.34.62-.11.88l-4.83,2.79A1.69,1.69,0,0,1,355.59,235.4Z"/><path class="cls-12" d="M363.12,239.75l-4.88-2.82c-.39-.22-.34-.62.11-.88l4.83-2.79a1.69,1.69,0,0,1,1.53-.06l4.88,2.81c.39.23.34.62-.11.89l-4.83,2.79A1.72,1.72,0,0,1,363.12,239.75Z"/><path class="cls-12" d="M370.65,244.1l-4.88-2.82c-.39-.22-.34-.62.11-.88l4.83-2.79a1.69,1.69,0,0,1,1.53-.06l4.88,2.81c.39.23.34.62-.11.88L372.18,244A1.73,1.73,0,0,1,370.65,244.1Z"/><path class="cls-12" d="M378.18,248.44l-4.88-2.81c-.39-.23-.34-.62.11-.88l4.84-2.79a1.71,1.71,0,0,1,1.52-.07l4.88,2.82c.39.23.34.62-.11.88l-4.83,2.79A1.69,1.69,0,0,1,378.18,248.44Z"/><path class="cls-12" d="M385.71,252.79,380.83,250c-.39-.23-.34-.62.11-.89l4.84-2.79a1.7,1.7,0,0,1,1.52-.06l4.88,2.82c.39.22.34.62-.11.88l-4.83,2.79A1.69,1.69,0,0,1,385.71,252.79Z"/><path class="cls-12" d="M393.24,257.14l-4.88-2.82c-.39-.22-.34-.62.11-.88l4.84-2.79a1.67,1.67,0,0,1,1.52-.06l4.88,2.81c.39.23.34.63-.11.89l-4.83,2.79A1.69,1.69,0,0,1,393.24,257.14Z"/><path class="cls-12" d="M336.56,216l-4.87-2.81c-.39-.23-.34-.62.11-.88l4.83-2.79a1.69,1.69,0,0,1,1.53-.07l4.87,2.82c.39.22.34.62-.11.88l-4.83,2.79A1.69,1.69,0,0,1,336.56,216Z"/><path class="cls-12" d="M328.92,211.54,324,208.72c-.39-.22-.34-.62.11-.88l4.84-2.79a1.67,1.67,0,0,1,1.52-.06l4.88,2.82c.39.22.34.62-.11.88l-4.83,2.79A1.69,1.69,0,0,1,328.92,211.54Z"/><path class="cls-12" d="M321.27,207.12l-10.51-6.06c-.39-.23-.34-.62.11-.89l4.83-2.78a1.7,1.7,0,0,1,1.53-.07l10.5,6.07c.4.22.35.62-.11.88l-4.83,2.79A1.67,1.67,0,0,1,321.27,207.12Z"/><path class="cls-12" d="M326.62,201.75l-8.53-4.93c-.39-.22-.34-.62.11-.88l4.84-2.79a1.67,1.67,0,0,1,1.52-.06l8.53,4.92c.39.23.34.62-.11.88l-4.84,2.79A1.71,1.71,0,0,1,326.62,201.75Z"/><path class="cls-12" d="M344.09,220.3l-4.87-2.82c-.39-.22-.34-.62.11-.88l4.83-2.79a1.69,1.69,0,0,1,1.53-.06l4.87,2.82c.39.22.34.62-.11.88l-4.83,2.79A1.69,1.69,0,0,1,344.09,220.3Z"/><path class="cls-12" d="M351.62,224.65l-4.87-2.82c-.39-.22-.34-.62.11-.88l4.83-2.79a1.69,1.69,0,0,1,1.53-.06l4.87,2.81c.39.23.35.62-.11.88l-4.83,2.79A1.69,1.69,0,0,1,351.62,224.65Z"/><path class="cls-12" d="M359.15,229l-4.87-2.82c-.39-.23-.34-.62.11-.88l4.83-2.79a1.69,1.69,0,0,1,1.53-.06l4.87,2.81c.39.23.35.62-.11.88l-4.83,2.79A1.73,1.73,0,0,1,359.15,229Z"/><path class="cls-12" d="M366.68,233.34l-4.87-2.81c-.39-.23-.34-.62.11-.88l4.83-2.79a1.73,1.73,0,0,1,1.53-.07l4.87,2.82c.39.22.35.62-.11.88l-4.83,2.79A1.69,1.69,0,0,1,366.68,233.34Z"/><path class="cls-12" d="M374.22,237.69l-4.88-2.81c-.39-.23-.34-.63.11-.89l4.83-2.79a1.69,1.69,0,0,1,1.53-.06l4.87,2.82c.4.22.35.62-.11.88l-4.83,2.79A1.67,1.67,0,0,1,374.22,237.69Z"/><path class="cls-12" d="M381.75,242l-4.88-2.82c-.39-.22-.34-.62.11-.88l4.83-2.79a1.69,1.69,0,0,1,1.53-.06l4.87,2.81c.4.23.35.62-.11.89L383.27,242A1.67,1.67,0,0,1,381.75,242Z"/><path class="cls-12" d="M389.28,246.39l-4.88-2.82c-.39-.23-.34-.62.11-.88l4.83-2.79a1.69,1.69,0,0,1,1.53-.06l4.87,2.81c.4.23.35.62-.11.88l-4.83,2.79A1.71,1.71,0,0,1,389.28,246.39Z"/><path class="cls-12" d="M396.81,250.73l-4.88-2.81c-.39-.23-.34-.62.11-.88l4.83-2.79a1.73,1.73,0,0,1,1.53-.07l4.87,2.82c.4.22.35.62-.11.88l-4.83,2.79A1.67,1.67,0,0,1,396.81,250.73Z"/><path class="cls-12" d="M404.34,255.08l-4.88-2.81c-.39-.23-.34-.63.11-.89l4.83-2.79a1.69,1.69,0,0,1,1.53-.06l4.87,2.82c.4.22.35.62-.1.88L405.86,255A1.67,1.67,0,0,1,404.34,255.08Z"/><path class="cls-12" d="M417.72,262.81l-10.64-6.14c-.39-.23-.34-.62.11-.88L412,253a1.67,1.67,0,0,1,1.52-.07l10.64,6.15c.39.22.34.62-.11.88l-4.83,2.79A1.69,1.69,0,0,1,417.72,262.81Z"/><path class="cls-12" d="M432.38,254.35l-9-5.19c-.39-.23-.34-.62.11-.88l4.83-2.79a1.69,1.69,0,0,1,1.53-.06l9,5.18c.39.23.34.62-.11.88l-4.83,2.79A1.73,1.73,0,0,1,432.38,254.35Z"/><path class="cls-12" d="M357.28,219.45l-4.88-2.82c-.39-.22-.34-.62.11-.88l4.84-2.79a1.67,1.67,0,0,1,1.52-.06l4.88,2.81c.39.23.34.63-.11.89l-4.83,2.79A1.69,1.69,0,0,1,357.28,219.45Z"/><path class="cls-12" d="M349.56,215l-4.87-2.81c-.39-.23-.35-.62.11-.88l4.83-2.79a1.73,1.73,0,0,1,1.53-.07l4.87,2.82c.39.22.34.62-.11.88l-4.83,2.79A1.69,1.69,0,0,1,349.56,215Z"/><path class="cls-12" d="M341.85,210.54,337,207.72c-.39-.22-.34-.62.11-.88l4.83-2.79a1.69,1.69,0,0,1,1.53-.06l4.87,2.81c.4.23.35.62-.11.89l-4.83,2.78A1.67,1.67,0,0,1,341.85,210.54Z"/><path class="cls-12" d="M334.13,206.08l-4.88-2.81c-.39-.23-.34-.62.11-.89l4.83-2.78a1.7,1.7,0,0,1,1.53-.07l4.88,2.82c.39.22.34.62-.11.88L335.66,206A1.69,1.69,0,0,1,334.13,206.08Z"/><path class="cls-12" d="M364.81,223.8,359.94,221c-.4-.22-.35-.62.1-.88l4.84-2.79a1.67,1.67,0,0,1,1.52-.06l4.88,2.81c.39.23.34.62-.11.88l-4.83,2.79A1.73,1.73,0,0,1,364.81,223.8Z"/><path class="cls-12" d="M372.34,228.14l-4.87-2.81c-.4-.23-.35-.62.11-.88l4.83-2.79a1.71,1.71,0,0,1,1.52-.07l4.88,2.82c.39.23.34.62-.11.88l-4.83,2.79A1.69,1.69,0,0,1,372.34,228.14Z"/><path class="cls-12" d="M379.87,232.49,375,229.68c-.4-.23-.35-.62.11-.88l4.83-2.79a1.67,1.67,0,0,1,1.52-.07l4.88,2.82c.39.22.34.62-.11.88l-4.83,2.79A1.69,1.69,0,0,1,379.87,232.49Z"/><path class="cls-12" d="M387.4,236.84,382.53,234c-.4-.22-.35-.62.11-.88l4.83-2.79a1.67,1.67,0,0,1,1.52-.06l4.88,2.82c.39.22.34.62-.11.88l-4.83,2.79A1.69,1.69,0,0,1,387.4,236.84Z"/><path class="cls-12" d="M394.93,241.19l-4.87-2.82c-.4-.22-.35-.62.11-.88L395,234.7a1.67,1.67,0,0,1,1.52-.06l4.88,2.81c.39.23.34.62-.11.88l-4.83,2.79A1.7,1.7,0,0,1,394.93,241.19Z"/><path class="cls-12" d="M402.46,245.53l-4.87-2.81c-.39-.23-.35-.62.11-.88l4.83-2.79a1.69,1.69,0,0,1,1.53-.06l4.87,2.81c.39.23.34.62-.11.88L404,245.47A1.69,1.69,0,0,1,402.46,245.53Z"/><path class="cls-12" d="M410,249.88l-4.87-2.81c-.39-.23-.35-.62.11-.88l4.83-2.79a1.69,1.69,0,0,1,1.53-.07l4.87,2.82c.39.22.34.62-.11.88l-4.83,2.79A1.69,1.69,0,0,1,410,249.88Z"/><path class="cls-12" d="M417.52,254.23l-4.87-2.82c-.39-.22-.35-.62.11-.88l4.83-2.79a1.69,1.69,0,0,1,1.53-.06L424,250.5c.39.22.34.62-.11.88l-4.83,2.79A1.69,1.69,0,0,1,417.52,254.23Z"/><path class="cls-12" d="M425.05,258.58l-4.87-2.82c-.39-.22-.35-.62.11-.88l4.83-2.79a1.69,1.69,0,0,1,1.53-.06l4.87,2.81c.39.23.34.62-.11.88l-4.83,2.79A1.69,1.69,0,0,1,425.05,258.58Z"/><path class="cls-12" d="M353.32,208.7l-4.88-2.82c-.39-.23-.34-.62.11-.88l4.83-2.79a1.69,1.69,0,0,1,1.53-.06l4.87,2.81c.4.23.35.62-.11.88l-4.83,2.79A1.71,1.71,0,0,1,353.32,208.7Z"/><path class="cls-12" d="M345.82,204.37,341,201.55c-.39-.22-.35-.62.11-.88l4.83-2.79a1.69,1.69,0,0,1,1.53-.06l4.87,2.82c.39.22.34.62-.11.88l-4.83,2.79A1.69,1.69,0,0,1,345.82,204.37Z"/><path class="cls-12" d="M338.33,200l-4.88-2.81c-.39-.23-.34-.62.11-.88l4.84-2.79a1.71,1.71,0,0,1,1.52-.07l4.88,2.82c.39.23.34.62-.11.88L339.86,200A1.69,1.69,0,0,1,338.33,200Z"/><path class="cls-12" d="M330.84,195.72,326,192.9c-.39-.22-.34-.62.11-.88l4.83-2.79a1.69,1.69,0,0,1,1.53-.06l4.88,2.81c.39.23.34.62-.11.89l-4.84,2.78A1.67,1.67,0,0,1,330.84,195.72Z"/><path class="cls-12" d="M338.54,191.27l-4.87-2.82c-.4-.22-.35-.62.11-.88l1.59-.92a1.69,1.69,0,0,1,1.53-.06l4.88,2.81c.39.23.34.62-.11.88l-1.6.93A1.69,1.69,0,0,1,338.54,191.27Z"/><path class="cls-12" d="M348.32,196.91l-4.88-2.81c-.39-.23-.34-.62.11-.88l1.6-.92a1.7,1.7,0,0,1,1.53-.07l4.87,2.82c.4.22.35.62-.1.88l-1.6.92A1.69,1.69,0,0,1,348.32,196.91Z"/><path class="cls-12" d="M355.78,201.22l-4.87-2.81c-.4-.23-.35-.62.11-.88l1.59-.93a1.69,1.69,0,0,1,1.53-.06l4.88,2.82c.39.22.34.62-.11.88l-1.6.92A1.69,1.69,0,0,1,355.78,201.22Z"/><path class="cls-12" d="M363.24,205.53l-4.87-2.81c-.39-.23-.34-.63.11-.89l1.59-.92a1.69,1.69,0,0,1,1.53-.06l4.88,2.81c.39.23.34.62-.11.89l-1.6.92A1.69,1.69,0,0,1,363.24,205.53Z"/><path class="cls-12" d="M370.71,209.84,365.83,207c-.39-.22-.34-.62.11-.88l1.6-.92a1.67,1.67,0,0,1,1.52-.06l4.88,2.81c.39.23.34.62-.11.88l-1.6.93A1.7,1.7,0,0,1,370.71,209.84Z"/><path class="cls-12" d="M412.36,233.89l-4.87-2.82c-.4-.22-.35-.62.11-.88l1.59-.92a1.69,1.69,0,0,1,1.53-.06L415.6,232c.39.23.34.62-.11.88l-1.6.93A1.69,1.69,0,0,1,412.36,233.89Z"/><path class="cls-12" d="M419.82,238.2,415,235.38c-.39-.22-.34-.62.11-.88l1.59-.92a1.73,1.73,0,0,1,1.53-.07l4.88,2.82c.39.23.34.62-.11.88l-1.6.92A1.73,1.73,0,0,1,419.82,238.2Z"/><path class="cls-12" d="M427.29,242.51l-4.88-2.82c-.39-.23-.34-.62.11-.88l1.6-.92a1.67,1.67,0,0,1,1.52-.07l4.88,2.82c.39.22.34.62-.11.88l-1.6.92A1.71,1.71,0,0,1,427.29,242.51Z"/><path class="cls-12" d="M434.75,246.81,429.87,244c-.39-.23-.34-.62.11-.88l1.6-.93a1.69,1.69,0,0,1,1.53-.06L438,245c.39.22.34.62-.11.88l-1.6.92A1.67,1.67,0,0,1,434.75,246.81Z"/><path class="cls-12" d="M360.85,213,356,210.23c-.39-.23-.34-.62.11-.88l4.83-2.79a1.73,1.73,0,0,1,1.53-.07l4.87,2.82c.4.22.35.62-.1.88L362.37,213A1.67,1.67,0,0,1,360.85,213Z"/><path class="cls-12" d="M368.38,217.39l-4.88-2.81c-.39-.23-.34-.63.11-.89l4.83-2.79a1.72,1.72,0,0,1,1.53-.06l4.88,2.82c.39.22.34.62-.11.88l-4.84,2.79A1.67,1.67,0,0,1,368.38,217.39Z"/><path class="cls-12" d="M375.91,221.74,371,218.92c-.39-.22-.34-.62.11-.88l4.83-2.79a1.69,1.69,0,0,1,1.53-.06l4.88,2.81c.39.23.34.62-.11.89l-4.84,2.79A1.7,1.7,0,0,1,375.91,221.74Z"/><path class="cls-12" d="M383.44,226.09l-4.88-2.82c-.39-.23-.34-.62.11-.88l4.83-2.79a1.69,1.69,0,0,1,1.53-.06l4.88,2.81c.39.23.34.62-.11.88L385,226A1.71,1.71,0,0,1,383.44,226.09Z"/><path class="cls-12" d="M391,230.43l-4.88-2.81c-.39-.23-.34-.62.11-.88L391,224a1.73,1.73,0,0,1,1.53-.07l4.88,2.82c.39.23.34.62-.11.88l-4.84,2.79A1.67,1.67,0,0,1,391,230.43Z"/><path class="cls-12" d="M398.5,234.78,393.62,232c-.39-.23-.34-.62.11-.89l4.83-2.79a1.72,1.72,0,0,1,1.53-.06l4.88,2.82c.39.22.34.62-.11.88L400,234.72A1.67,1.67,0,0,1,398.5,234.78Z"/><path class="cls-12" d="M406,239.13l-4.88-2.82c-.39-.22-.34-.62.11-.88l4.83-2.79a1.69,1.69,0,0,1,1.53-.06l4.88,2.81c.39.23.34.63-.11.89l-4.83,2.79A1.69,1.69,0,0,1,406,239.13Z"/><path class="cls-12" d="M413.56,243.48l-4.88-2.82c-.39-.22-.34-.62.11-.88l4.83-2.79a1.69,1.69,0,0,1,1.53-.06l4.88,2.81c.39.23.34.62-.11.88l-4.83,2.79A1.73,1.73,0,0,1,413.56,243.48Z"/><path class="cls-12" d="M421.09,247.82,416.21,245c-.39-.23-.34-.62.11-.88l4.83-2.79a1.73,1.73,0,0,1,1.53-.07l4.88,2.82c.39.23.34.62-.11.88l-4.83,2.79A1.69,1.69,0,0,1,421.09,247.82Z"/><path class="cls-12" d="M317.79,213.58l-14.36-8.29c-.39-.23-.34-.62.11-.88l4.83-2.79a1.73,1.73,0,0,1,1.53-.07l14.36,8.3c.39.22.35.62-.11.88l-4.83,2.79A1.69,1.69,0,0,1,317.79,213.58Z"/><path class="cls-12" d="M410.31,267l-14.37-8.29c-.39-.23-.34-.62.11-.88l4.84-2.79a1.67,1.67,0,0,1,1.52-.06l14.36,8.29c.4.22.35.62-.11.88l-4.83,2.79A1.67,1.67,0,0,1,410.31,267Z"/><path class="cls-12" d="M380.19,259.21l-4.88-2.82c-.39-.22-.34-.62.11-.88l5.76-3.32a1.73,1.73,0,0,1,1.53-.07l4.87,2.82c.4.23.35.62-.11.88l-5.75,3.32A1.7,1.7,0,0,1,380.19,259.21Z"/><path class="cls-12" d="M325.51,227.64l-7.8-4.51c-.39-.22-.34-.62.11-.88l5.75-3.32a1.69,1.69,0,0,1,1.53-.06l7.8,4.5c.39.22.34.62-.11.88L327,227.57A1.71,1.71,0,0,1,325.51,227.64Z"/><path class="cls-12" d="M372.94,255l-7.8-4.5c-.39-.23-.35-.62.11-.89l5.75-3.32a1.69,1.69,0,0,1,1.53-.06l7.8,4.5c.39.23.34.62-.11.88L374.46,255A1.67,1.67,0,0,1,372.94,255Z"/><path class="cls-12" d="M336.37,233.91l-7.8-4.5c-.39-.23-.34-.62.11-.89l5.76-3.32a1.67,1.67,0,0,1,1.52-.06l7.8,4.5c.39.23.35.62-.11.88l-5.75,3.33A1.72,1.72,0,0,1,336.37,233.91Z"/><path class="cls-12" d="M336,225.17l33.9,19.57c.42.25.42.64,0,.88L364.05,249a1.69,1.69,0,0,1-1.52,0l-33.9-19.57Z"/><path class="cls-12" d="M401.24,267.09l5.43,3.14c.32.18.28.51-.09.72l-2.36,1.36a1.38,1.38,0,0,1-1.25.05l-5.43-3.14c-.32-.18-.28-.5.09-.72l2.35-1.36A1.44,1.44,0,0,1,401.24,267.09Z"/><path class="cls-12" d="M393.64,262.71l5.44,3.13c.32.19.28.51-.09.73l-2.36,1.36a1.42,1.42,0,0,1-1.25.05L390,264.84c-.32-.18-.28-.51.09-.72l2.35-1.36A1.38,1.38,0,0,1,393.64,262.71Z"/><path class="cls-12" d="M386.11,258.36l5.44,3.14c.32.18.28.5-.09.72l-2.36,1.36a1.42,1.42,0,0,1-1.25.05l-5.43-3.14c-.32-.18-.28-.51.09-.72l2.35-1.36A1.38,1.38,0,0,1,386.11,258.36Z"/><path class="cls-12" d="M397.8,260.31l5.43,3.13c.33.19.28.51-.09.73l-2.35,1.35a1.39,1.39,0,0,1-1.25.06l-5.43-3.14c-.32-.18-.28-.51.09-.72l2.35-1.36A1.35,1.35,0,0,1,397.8,260.31Z"/></g><path class="cls-13" d="M477.5,251.51,333.64,168.45a6.36,6.36,0,0,1-2.64-7.11L363.53,55.71c.81-2.62,3.3-3.68,5.56-2.38L513,136.39a6.39,6.39,0,0,1,2.64,7.11L483.05,249.13C482.25,251.75,479.76,252.82,477.5,251.51Z"/><path class="cls-14" d="M476.14,247.81,336.6,167.18a6.1,6.1,0,0,1-2.52-6.8l31.1-101c.77-2.51,3.15-3.53,5.32-2.28L510,137.75a6.11,6.11,0,0,1,2.52,6.8l-31.1,101A3.54,3.54,0,0,1,476.14,247.81Z"/><path class="cls-15" d="M476.14,247.81,336.6,167.18a6.1,6.1,0,0,1-2.52-6.8l31.1-101c.77-2.51,3.15-3.53,5.32-2.28L510,137.75a6.11,6.11,0,0,1,2.52,6.8l-31.1,101A3.54,3.54,0,0,1,476.14,247.81Z"/><path class="cls-15" d="M476.14,247.81,336.6,167.18a6.1,6.1,0,0,1-2.52-6.8l31.1-101c.77-2.51,3.15-3.53,5.32-2.28L510,137.75a6.11,6.11,0,0,1,2.52,6.8l-31.1,101A3.54,3.54,0,0,1,476.14,247.81Z"/><path class="cls-16" d="M468.64,217l-94.46-54.53a4.19,4.19,0,0,1-1.73-4.67l21.37-69.36a2.42,2.42,0,0,1,3.64-1.56l94.46,54.54a4.16,4.16,0,0,1,1.73,4.66l-21.36,69.36A2.42,2.42,0,0,1,468.64,217Z"/><path class="cls-17" d="M455.88,218.63l-94.46-54.54a4.19,4.19,0,0,1-1.73-4.67l21.36-69.36a2.43,2.43,0,0,1,3.65-1.56L479.16,143a4.18,4.18,0,0,1,1.73,4.67l-21.36,69.35A2.43,2.43,0,0,1,455.88,218.63Z"/><g class="cls-18"><path class="cls-12" d="M455.88,218.63l-94.46-54.54a4.19,4.19,0,0,1-1.73-4.67l21.36-69.36a2.43,2.43,0,0,1,3.65-1.56L479.16,143a4.18,4.18,0,0,1,1.73,4.67l-21.36,69.35A2.43,2.43,0,0,1,455.88,218.63Z"/></g><path class="cls-10" d="M479.16,143,384.7,88.5a2.37,2.37,0,0,0-2.66.09,2.62,2.62,0,0,1,1.37.35l94.46,54.54a4.19,4.19,0,0,1,1.73,4.67L458.24,217.5a2.86,2.86,0,0,1-1,1.48,2.51,2.51,0,0,0,2.28-1.92l21.36-69.35A4.18,4.18,0,0,0,479.16,143Z"/><path class="cls-15" d="M336.75,275.26a7.08,7.08,0,0,1-3.5-.82h0L295.4,252.59a2.72,2.72,0,0,1-1.55-2.33,3.57,3.57,0,0,1,2.08-2.89l19.48-11.25c2.38-1.37,5.88-1.51,8-.3l37.84,21.84a2.73,2.73,0,0,1,1.56,2.34,3.58,3.58,0,0,1-2.09,2.89L341.2,274.14A9.16,9.16,0,0,1,336.75,275.26ZM319.89,236.1a8.11,8.11,0,0,0-3.93,1l-19.48,11.25c-1,.56-1.54,1.27-1.54,1.94a1.73,1.73,0,0,0,1,1.39l37.84,21.85a7.77,7.77,0,0,0,6.87-.31l19.48-11.25c1-.56,1.54-1.27,1.54-1.94a1.73,1.73,0,0,0-1-1.39l-37.85-21.85A6,6,0,0,0,319.89,236.1Z"/><path class="cls-10" d="M407.71,124.89l-5.84-3.37a1.53,1.53,0,0,1-.65-1.68h0a.86.86,0,0,1,1.31-.55l5.84,3.37a1.54,1.54,0,0,1,.65,1.68h0A.86.86,0,0,1,407.71,124.89Z"/><path class="cls-10" d="M421.62,132.92,413,128a1.51,1.51,0,0,1-.65-1.68h0a.87.87,0,0,1,1.31-.55l8.61,5a1.53,1.53,0,0,1,.65,1.68h0A.86.86,0,0,1,421.62,132.92Z"/><path class="cls-10" d="M395.93,150.89l-5.84-3.37a1.53,1.53,0,0,1-.65-1.68h0a.86.86,0,0,1,1.31-.55l5.84,3.37a1.51,1.51,0,0,1,.65,1.68h0A.86.86,0,0,1,395.93,150.89Z"/><path class="cls-10" d="M408.33,158.05l-8.61-5a1.54,1.54,0,0,1-.65-1.68h0a.86.86,0,0,1,1.31-.55l8.61,5a1.51,1.51,0,0,1,.65,1.68h0A.86.86,0,0,1,408.33,158.05Z"/><path class="cls-10" d="M390.21,120.26l-3.64-2.11a1.5,1.5,0,0,1-.65-1.68h0a.86.86,0,0,1,1.31-.54l3.65,2.1a1.53,1.53,0,0,1,.65,1.68h0A.87.87,0,0,1,390.21,120.26Z"/><path class="cls-10" d="M401.19,132.06,390,125.63a1.52,1.52,0,0,1-.64-1.68h0a.86.86,0,0,1,1.31-.55l11.14,6.44a1.49,1.49,0,0,1,.65,1.67h0A.86.86,0,0,1,401.19,132.06Z"/><path class="cls-10" d="M390.91,137.06,387.26,135a1.53,1.53,0,0,1-.65-1.68h0a.87.87,0,0,1,1.32-.54l3.64,2.1a1.51,1.51,0,0,1,.65,1.68h0A.86.86,0,0,1,390.91,137.06Z"/><path class="cls-10" d="M409.67,169.76l-9.74-5.63a1.53,1.53,0,0,1-.65-1.68h0a.86.86,0,0,1,1.31-.54l9.75,5.62a1.54,1.54,0,0,1,.65,1.68h0A.87.87,0,0,1,409.67,169.76Z"/><path class="cls-10" d="M386.82,145.63l-2.34-1.35a1.53,1.53,0,0,1-.65-1.68h0a.87.87,0,0,1,1.31-.55l2.35,1.36a1.5,1.5,0,0,1,.64,1.67h0A.86.86,0,0,1,386.82,145.63Z"/><path class="cls-10" d="M384.61,155.29l-2.91-1.68a1.54,1.54,0,0,1-.65-1.68h0a.86.86,0,0,1,1.31-.55l2.91,1.68a1.53,1.53,0,0,1,.65,1.68h0A.87.87,0,0,1,384.61,155.29Z"/><path class="cls-10" d="M395.92,161.82l-7.67-4.43a1.53,1.53,0,0,1-.65-1.68h0a.88.88,0,0,1,1.32-.55l7.66,4.43a1.52,1.52,0,0,1,.65,1.68h0A.87.87,0,0,1,395.92,161.82Z"/><path class="cls-10" d="M385.82,161.45l-5.51-3.18a1.5,1.5,0,0,1-.65-1.68h0A.87.87,0,0,1,381,156l5.51,3.19a1.51,1.51,0,0,1,.65,1.68h0A.86.86,0,0,1,385.82,161.45Z"/><path class="cls-10" d="M418,174.61l-3.54-2.05a1.52,1.52,0,0,1-.65-1.67h0a.87.87,0,0,1,1.32-.55l3.54,2a1.54,1.54,0,0,1,.65,1.68h0A.87.87,0,0,1,418,174.61Z"/><path class="cls-10" d="M404.48,144.89l-9.74-5.62a1.52,1.52,0,0,1-.65-1.68h0a.86.86,0,0,1,1.31-.55l9.74,5.63a1.5,1.5,0,0,1,.65,1.68h0A.86.86,0,0,1,404.48,144.89Z"/><path class="cls-19" d="M405.64,140.09l-17-9.8a1.53,1.53,0,0,1-.65-1.68h0a.88.88,0,0,1,1.32-.55l17,9.81a1.53,1.53,0,0,1,.65,1.68h0A.86.86,0,0,1,405.64,140.09Z"/><path class="cls-19" d="M395.61,145.24l-9.74-5.62a1.54,1.54,0,0,1-.65-1.68h0a.87.87,0,0,1,1.32-.55l9.74,5.63a1.53,1.53,0,0,1,.65,1.68h0A.87.87,0,0,1,395.61,145.24Z"/><path class="cls-19" d="M411.87,149.16l-3.54-2a1.54,1.54,0,0,1-.65-1.68h0a.86.86,0,0,1,1.31-.55l3.55,2a1.52,1.52,0,0,1,.64,1.68h0A.86.86,0,0,1,411.87,149.16Z"/><path class="cls-19" d="M447.88,148.09l-21-12.11a1.53,1.53,0,0,1-.65-1.68h0a.86.86,0,0,1,1.31-.54l21,12.1a1.53,1.53,0,0,1,.65,1.68h0A.88.88,0,0,1,447.88,148.09Z"/><path class="cls-20" d="M394.8,155.71l-11.71-6.77a1.53,1.53,0,0,1-.65-1.68h0a.86.86,0,0,1,1.31-.54l11.72,6.76a1.51,1.51,0,0,1,.64,1.68h0A.87.87,0,0,1,394.8,155.71Z"/><path class="cls-20" d="M396.57,118.46l-8.61-5a1.51,1.51,0,0,1-.65-1.68h0a.86.86,0,0,1,1.31-.55l8.61,5a1.54,1.54,0,0,1,.65,1.68h0A.86.86,0,0,1,396.57,118.46Z"/><path class="cls-19" d="M384,165.88l-10-5.76a1.5,1.5,0,0,1-.65-1.68h0a.86.86,0,0,1,1.31-.54l10,5.75a1.54,1.54,0,0,1,.65,1.68h0A.86.86,0,0,1,384,165.88Z"/><path class="cls-10" d="M450.24,137.3,446,134.84a1.12,1.12,0,0,1-.48-1.23h0a.63.63,0,0,1,1-.4l4.27,2.47a1.11,1.11,0,0,1,.48,1.22h0A.63.63,0,0,1,450.24,137.3Z"/><path class="cls-10" d="M458.38,142l-4.27-2.46a1.12,1.12,0,0,1-.48-1.23h0a.63.63,0,0,1,1-.4l4.27,2.47a1.11,1.11,0,0,1,.48,1.22h0A.63.63,0,0,1,458.38,142Z"/><path class="cls-10" d="M466.52,146.71l-4.27-2.47a1.12,1.12,0,0,1-.47-1.23h0a.63.63,0,0,1,1-.4l4.27,2.47a1.13,1.13,0,0,1,.47,1.23h0A.64.64,0,0,1,466.52,146.71Z"/><path class="cls-20" d="M470.52,149l-.13-.08a1.13,1.13,0,0,1-.47-1.23h0a.63.63,0,0,1,1-.4l.13.08a1.12,1.12,0,0,1,.47,1.23h0A.63.63,0,0,1,470.52,149Z"/><path class="cls-21" d="M250.21,199a15.62,15.62,0,0,1-7.81-2.08h0l-28.6-16.51a4,4,0,0,1,0-6.86L242.4,157A15.67,15.67,0,0,1,258,157l28.6,16.51a4,4,0,0,1,0,6.86L258,196.89A15.62,15.62,0,0,1,250.21,199Zm-6.88-3.69a13.8,13.8,0,0,0,13.76,0l28.6-16.51a2.1,2.1,0,0,0,0-3.64l-28.6-16.51a13.8,13.8,0,0,0-13.76,0l-28.6,16.51a2.1,2.1,0,0,0,0,3.64Z"/><ellipse class="cls-5" cx="250.06" cy="177.34" rx="19.64" ry="11.34"/><path class="cls-22" d="M279.18,96.52H223.24l5.2,60.57h0c0,3.36,2.22,6.73,6.67,9.29,8.89,5.14,23.31,5.14,32.2,0,4.44-2.56,6.67-5.93,6.67-9.29Z"/><path class="cls-15" d="M279.18,96.52H223.24l.85,10a21.72,21.72,0,0,0,5.19,4.67c10.69,7.09,28.33,8.45,40.36,3.35l-1.86,44.3a8.69,8.69,0,0,1-2,5.28c-1.81,2.13-5.3,4.64-12,6.06a31.61,31.61,0,0,0,13.54-3.76c4.44-2.56,6.67-5.93,6.67-9.29l4.17-48.58h0Z"/><ellipse class="cls-15" cx="251.21" cy="96.52" rx="27.97" ry="16.15"/><ellipse class="cls-15" cx="251.21" cy="90.83" rx="24.09" ry="13.91"/><path class="cls-23" d="M280.84,95.76h0v-.13l-.54-5.42,0,.06c-.24-4.11-3.06-8.17-8.49-11.3-11.36-6.56-29.77-6.56-41.13,0-5.56,3.22-8.39,7.41-8.5,11.62v0l-.51,4.83c0,.13,0,.25,0,.38v.08h0c-.31,4.61,2.57,9.26,8.66,12.78,11.58,6.68,30.36,6.68,41.94,0C278.3,105.08,281.19,100.39,280.84,95.76Z"/><ellipse class="cls-24" cx="251.21" cy="90.83" rx="24.09" ry="13.91"/><ellipse class="cls-25" cx="250.06" cy="90.83" rx="24.09" ry="13.91"/><path class="cls-15" d="M237,83.06c9.41-5.43,24.66-5.43,34.07,0l.34.22a19.31,19.31,0,0,0-3.2-2.29c-9.41-5.43-24.66-5.43-34.07,0s-9.39,14-.33,19.46C227.79,95.06,228.85,87.78,237,83.06Z"/><path class="cls-26" d="M234.17,83.4c9.41-5.43,24.66-5.43,34.07,0,4.18,2.41,6.49,5.49,7,8.63.59-4-1.73-8-7-11-9.41-5.43-24.66-5.43-34.07,0-5.23,3-7.55,7.09-7,11C227.68,88.88,230,85.81,234.17,83.4Z"/><path class="cls-27" d="M272,79.09c-11.34-6.68-29.82-6.84-41.28-.36s-11.55,17.15-.21,23.83,29.83,6.84,41.28.36S283.29,85.77,272,79.09Zm-3.71,21.57a31.21,31.21,0,0,1-10.95,3.61l-.44-1.43a1.37,1.37,0,0,0-1.32-1h-8.65a1.38,1.38,0,0,0-1.32,1l-.43,1.43a31.26,31.26,0,0,1-11-3.61c-9.41-5.43-9.41-14.24,0-19.67s24.66-5.43,34.07,0S277.65,95.23,268.24,100.66Z"/><path class="cls-10" d="M268.24,80c-9.41-5.43-24.66-5.43-34.07,0-4.93,2.85-7.27,6.62-7,10.35.21-3.39,2.55-6.74,7-9.32,9.41-5.43,24.66-5.43,34.07,0,4.48,2.59,6.82,5.93,7,9.32C275.52,86.58,273.17,82.81,268.24,80Z"/><path class="cls-10" d="M271.74,101.89c-11.45,6.48-29.93,6.32-41.28-.36-5.39-3.18-8.19-7.26-8.42-11.37-.22,4.45,2.58,9,8.42,12.4,11.35,6.68,29.83,6.84,41.28.36,6-3.39,8.88-7.94,8.63-12.46C280.16,94.63,277.29,98.75,271.74,101.89Z"/><rect class="cls-28" x="247.97" y="103.62" width="6.48" height="1.4" rx="0.65"/><path class="cls-29" d="M253.79,103.62h-5.17a.66.66,0,0,0-.65.66v.09a1,1,0,0,0,0,.17.65.65,0,0,1,.62-.48h5.17a.65.65,0,0,1,.62.48.53.53,0,0,0,0-.17v-.09A.67.67,0,0,0,253.79,103.62Z"/><path class="cls-19" d="M252,150.87a4.47,4.47,0,1,1-8.64-2.3c.64-2.39,2.89-3.06,5.27-2.43S252.63,148.48,252,150.87Z"/><path class="cls-19" d="M255.52,146.16a2,2,0,1,1-2.77-2.83c.9-.88,2.61-1.32,3.38-.53S256.42,145.28,255.52,146.16Z"/><path class="cls-19" d="M250.84,142.42a2,2,0,1,1-3.89-.7c.22-1.23,1.36-2.58,2.43-2.39S251.06,141.18,250.84,142.42Z"/><path class="cls-19" d="M245.08,141.85a2,2,0,1,1-3.66,1.5c-.48-1.16-.24-2.91.77-3.33S244.6,140.68,245.08,141.85Z"/><path class="cls-30" d="M253,104.32s15.64-5.24,9.31-23.21-18.67-23.45-13.7-37.82c0,0-7.78,11.63-.51,27.38s8.87,13.94,8.79,21.47a13.6,13.6,0,0,1-7.33,12.18Z"/><path class="cls-30" d="M254.45,45.79S252.82,35,262.9,24.2c0,0-8.92,19.92-6,29.75C256.9,54,254.54,47.7,254.45,45.79Z"/></g></g></svg>