<svg width="1001" height="619" viewBox="0 0 1001 619" fill="none" xmlns="http://www.w3.org/2000/svg">
<path d="M917.09 148.201L914.087 142.618C888.728 95.5736 838.011 64.4255 781.834 63.3856C774.599 63.2597 767.364 63.6238 760.186 64.475C708.428 70.665 661.007 102.989 638.598 147.272C625.425 173.27 619.659 204.022 597.223 223.793C568.114 249.507 522.802 246.919 483.136 242.735C443.47 238.55 398.118 236.062 369.129 261.899C350.977 278.092 343.503 302.505 342.756 325.978C340.874 388.175 382.449 447.054 439.105 479.106C495.762 511.158 565.165 518.92 630.95 511.764C723.042 501.749 813.426 461.786 871.631 393.857C929.836 325.928 951.617 228.956 917.09 148.201Z" fill="#EBEBEB"/>
<path d="M157.357 246.424C207.835 246.424 248.755 208.467 248.755 161.646C248.755 114.824 207.835 76.8674 157.357 76.8674C106.879 76.8674 65.9592 114.824 65.9592 161.646C65.9592 208.467 106.879 246.424 157.357 246.424Z" fill="#EBEBEB"/>
<path d="M145.666 128.863H827.493C829.879 128.863 832.167 129.743 833.854 131.307C835.541 132.872 836.489 134.995 836.489 137.208V541.006C836.489 545.79 834.44 550.378 830.793 553.761C827.146 557.143 822.2 559.044 817.043 559.044H154.821C152.263 559.05 149.729 558.588 147.363 557.685C144.998 556.781 142.848 555.454 141.036 553.778C139.225 552.103 137.788 550.112 136.807 547.92C135.827 545.729 135.322 543.379 135.322 541.006V138.47C135.32 137.209 135.586 135.96 136.105 134.795C136.624 133.629 137.386 132.57 138.347 131.678C139.307 130.786 140.448 130.078 141.704 129.595C142.96 129.112 144.306 128.863 145.666 128.863V128.863Z" fill="#455A64"/>
<path d="M105.999 527.177H865.705V547.815C865.705 552.32 863.776 556.64 860.341 559.826C856.907 563.011 852.25 564.8 847.393 564.8H124.311C119.454 564.8 114.797 563.011 111.363 559.826C107.928 556.64 105.999 552.32 105.999 547.815V527.177Z" fill="#455A64"/>
<path d="M815.735 145.96H154.141V509.189H815.735V145.96Z" fill="#E0E0E0"/>
<path d="M416.803 527.177L426.226 541.08H558.878L567.634 527.177H416.803Z" fill="#263238"/>
<path d="M797.703 167.006H173.774V509.189H797.703V167.006Z" fill="#263238"/>
<path d="M221.648 499.137C221.328 499.137 221.061 426.268 221.061 336.389C221.061 246.511 221.328 173.605 221.648 173.605C221.968 173.605 222.235 246.473 222.235 336.389C222.235 426.305 221.968 499.137 221.648 499.137Z" fill="#E0E0E0"/>
<path d="M209.062 203.119C209.062 203.416 204.524 203.663 198.932 203.663C193.34 203.663 188.789 203.416 188.789 203.119C188.789 202.822 193.326 202.574 198.932 202.574C204.538 202.574 209.062 202.822 209.062 203.119Z" fill="#E0E0E0"/>
<path d="M209.836 184.648C209.836 184.945 205.298 185.192 199.706 185.192C194.114 185.192 189.576 184.945 189.576 184.648C189.576 184.351 194.114 184.103 199.706 184.103C205.298 184.103 209.836 184.351 209.836 184.648Z" fill="#E0E0E0"/>
<path d="M209.062 223.026C209.062 223.323 204.524 223.57 198.932 223.57C193.34 223.57 188.789 223.323 188.789 223.026C188.789 222.729 193.326 222.481 198.932 222.481C204.538 222.481 209.062 222.729 209.062 223.026Z" fill="#E0E0E0"/>
<path d="M209.062 242.933C209.062 243.242 204.524 243.477 198.932 243.477C193.34 243.477 188.789 243.242 188.789 242.933C188.789 242.623 193.326 242.4 198.932 242.4C204.538 242.4 209.062 242.648 209.062 242.933Z" fill="#E0E0E0"/>
<path d="M209.062 262.852C209.062 263.149 204.524 263.397 198.932 263.397C193.34 263.397 188.789 263.149 188.789 262.852C188.789 262.555 193.326 262.307 198.932 262.307C204.538 262.307 209.062 262.543 209.062 262.852Z" fill="#E0E0E0"/>
<path d="M209.062 282.759C209.062 283.056 204.524 283.304 198.932 283.304C193.34 283.304 188.789 283.056 188.789 282.759C188.789 282.462 193.326 282.214 198.932 282.214C204.538 282.214 209.062 282.462 209.062 282.759Z" fill="#E0E0E0"/>
<path d="M209.062 302.666C209.062 302.963 204.524 303.211 198.932 303.211C193.34 303.211 188.789 302.963 188.789 302.666C188.789 302.369 193.326 302.122 198.932 302.122C204.538 302.122 209.062 302.369 209.062 302.666Z" fill="#E0E0E0"/>
<path d="M209.062 322.573C209.062 322.883 204.524 323.118 198.932 323.118C193.34 323.118 188.789 322.883 188.789 322.573C188.789 322.264 193.326 322.041 198.932 322.041C204.538 322.041 209.062 322.276 209.062 322.573Z" fill="#E0E0E0"/>
<path d="M209.062 342.493C209.062 342.79 204.524 343.025 198.932 343.025C193.34 343.025 188.789 342.79 188.789 342.493C188.789 342.196 193.326 341.948 198.932 341.948C204.538 341.948 209.062 342.183 209.062 342.493Z" fill="#E0E0E0"/>
<path d="M209.062 362.4C209.062 362.697 204.524 362.944 198.932 362.944C193.34 362.944 188.789 362.697 188.789 362.4C188.789 362.103 193.326 361.855 198.932 361.855C204.538 361.855 209.062 362.103 209.062 362.4Z" fill="#E0E0E0"/>
<path d="M209.062 382.307C209.062 382.604 204.524 382.852 198.932 382.852C193.34 382.852 188.789 382.604 188.789 382.307C188.789 382.01 193.326 381.762 198.932 381.762C204.538 381.762 209.062 382.01 209.062 382.307Z" fill="#E0E0E0"/>
<path d="M209.062 402.214C209.062 402.523 204.524 402.758 198.932 402.758C193.34 402.758 188.789 402.523 188.789 402.214C188.789 401.904 193.326 401.681 198.932 401.681C204.538 401.681 209.062 401.917 209.062 402.214Z" fill="#E0E0E0"/>
<path d="M209.062 422.158C209.062 422.455 204.524 422.69 198.932 422.69C193.34 422.69 188.789 422.455 188.789 422.158C188.789 421.861 193.326 421.613 198.932 421.613C204.538 421.613 209.062 421.824 209.062 422.158Z" fill="#E0E0E0"/>
<path d="M209.062 442.04C209.062 442.337 204.524 442.585 198.932 442.585C193.34 442.585 188.789 442.337 188.789 442.04C188.789 441.743 193.326 441.496 198.932 441.496C204.538 441.496 209.062 441.743 209.062 442.04Z" fill="#E0E0E0"/>
<path d="M209.062 461.947C209.062 462.244 204.524 462.492 198.932 462.492C193.34 462.492 188.789 462.244 188.789 461.947C188.789 461.65 193.326 461.403 198.932 461.403C204.538 461.403 209.062 461.65 209.062 461.947Z" fill="#E0E0E0"/>
<path d="M209.062 481.854C209.062 482.164 204.524 482.399 198.932 482.399C193.34 482.399 188.789 482.164 188.789 481.854C188.789 481.545 193.326 481.31 198.932 481.31C204.538 481.31 209.062 481.582 209.062 481.854Z" fill="#E0E0E0"/>
<path d="M290.303 201.943C290.303 202.24 278.532 202.487 264.01 202.487C249.489 202.487 237.704 202.24 237.704 201.943C237.704 201.645 249.476 201.398 264.01 201.398C278.545 201.398 290.303 201.645 290.303 201.943Z" fill="#BA68C8"/>
<path d="M290.303 481.854C290.303 482.164 278.532 482.399 264.01 482.399C249.489 482.399 237.704 482.164 237.704 481.854C237.704 481.545 249.476 481.31 264.01 481.31C278.545 481.31 290.303 481.582 290.303 481.854Z" fill="#BA68C8"/>
<path d="M363.563 242.933C363.563 243.242 341.528 243.477 314.354 243.477C287.18 243.477 265.145 243.242 265.145 242.933C265.145 242.623 287.167 242.4 314.354 242.4C341.541 242.4 363.563 242.648 363.563 242.933Z" fill="#BA68C8"/>
<path d="M477.384 242.933C477.384 243.242 455.348 243.477 428.174 243.477C401.001 243.477 378.952 243.242 378.952 242.933C378.952 242.623 400.987 242.4 428.174 242.4C455.362 242.4 477.384 242.648 477.384 242.933Z" fill="#E0E0E0"/>
<path d="M433.887 262.852C433.887 263.149 401.414 263.397 361.361 263.397C321.308 263.397 288.835 263.149 288.835 262.852C288.835 262.555 321.294 262.307 361.361 262.307C401.428 262.307 433.887 262.543 433.887 262.852Z" fill="#E0E0E0"/>
<path d="M433.887 282.759C433.887 283.056 401.414 283.304 361.361 283.304C321.308 283.304 288.835 283.056 288.835 282.759C288.835 282.462 321.294 282.214 361.361 282.214C401.428 282.214 433.887 282.462 433.887 282.759Z" fill="#E0E0E0"/>
<path d="M533.733 342.493C533.733 342.79 501.247 343.025 461.207 343.025C421.167 343.025 388.668 342.79 388.668 342.493C388.668 342.196 421.141 341.948 461.207 341.948C501.274 341.948 533.733 342.183 533.733 342.493Z" fill="#E0E0E0"/>
<path d="M490.637 302.666C490.637 302.963 458.164 303.211 418.124 303.211C378.084 303.211 345.585 302.963 345.585 302.666C345.585 302.369 378.058 302.122 418.124 302.122C458.191 302.122 490.637 302.369 490.637 302.666Z" fill="#E0E0E0"/>
<path d="M667.894 302.666C667.894 302.963 635.421 303.211 595.381 303.211C555.341 303.211 522.842 302.963 522.842 302.666C522.842 302.369 555.315 302.122 595.381 302.122C635.448 302.122 667.894 302.369 667.894 302.666Z" fill="#E0E0E0"/>
<path d="M606.259 262.852C606.259 263.149 573.773 263.397 533.733 263.397C493.693 263.397 461.208 263.149 461.208 262.852C461.208 262.555 493.667 262.307 533.733 262.307C573.8 262.307 606.259 262.543 606.259 262.852Z" fill="#FAFAFA"/>
<path d="M706.452 342.493C706.452 342.79 673.98 343.025 633.927 343.025C593.873 343.025 561.401 342.79 561.401 342.493C561.401 342.196 593.86 341.948 633.927 341.948C673.993 341.948 706.452 342.183 706.452 342.493Z" fill="#FAFAFA"/>
<path d="M686.446 282.759C686.446 283.056 636.022 283.304 573.827 283.304C511.631 283.304 461.207 283.056 461.207 282.759C461.207 282.462 511.618 282.214 573.827 282.214C636.035 282.214 686.446 282.462 686.446 282.759Z" fill="#455A64"/>
<path d="M290.303 223.026C290.303 223.323 278.532 223.57 264.01 223.57C249.489 223.57 237.704 223.323 237.704 223.026C237.704 222.729 249.476 222.481 264.01 222.481C278.545 222.481 290.303 222.729 290.303 223.026Z" fill="#FAFAFA"/>
<path d="M290.303 461.947C290.303 462.244 278.532 462.492 264.01 462.492C249.489 462.492 237.704 462.244 237.704 461.947C237.704 461.65 249.476 461.403 264.01 461.403C278.545 461.403 290.303 461.65 290.303 461.947Z" fill="#FAFAFA"/>
<path d="M316.316 302.666C316.316 302.963 304.544 303.211 290.01 303.211C275.475 303.211 263.703 302.963 263.703 302.666C263.703 302.369 275.489 302.122 290.01 302.122C304.531 302.122 316.316 302.369 316.316 302.666Z" fill="#FAFAFA"/>
<path d="M737.977 302.666C737.977 302.963 726.206 303.211 711.684 303.211C697.163 303.211 685.378 302.963 685.378 302.666C685.378 302.369 697.15 302.122 711.684 302.122C726.219 302.122 737.977 302.369 737.977 302.666Z" fill="#BA68C8"/>
<path d="M363.563 382.195C363.563 382.493 341.528 382.74 314.354 382.74C287.18 382.74 265.145 382.493 265.145 382.195C265.145 381.898 287.167 381.651 314.354 381.651C341.541 381.651 363.563 381.886 363.563 382.195Z" fill="#BA68C8"/>
<path d="M477.384 382.195C477.384 382.493 455.348 382.74 428.174 382.74C401.001 382.74 378.952 382.493 378.952 382.195C378.952 381.898 400.987 381.651 428.174 381.651C455.362 381.651 477.384 381.886 477.384 382.195Z" fill="#E0E0E0"/>
<path d="M433.887 402.102C433.887 402.399 401.414 402.647 361.361 402.647C321.308 402.647 288.835 402.399 288.835 402.102C288.835 401.805 321.294 401.558 361.361 401.558C401.428 401.558 433.887 401.805 433.887 402.102Z" fill="#E0E0E0"/>
<path d="M433.887 422.009C433.887 422.307 401.414 422.554 361.361 422.554C321.308 422.554 288.835 422.307 288.835 422.009C288.835 421.712 321.294 421.465 361.361 421.465C401.428 421.465 433.887 421.712 433.887 422.009Z" fill="#E0E0E0"/>
<path d="M490.637 441.966C490.637 442.275 458.164 442.511 418.124 442.511C378.084 442.511 345.585 442.275 345.585 441.966C345.585 441.656 378.058 441.434 418.124 441.434C458.191 441.434 490.637 441.619 490.637 441.966Z" fill="#E0E0E0"/>
<path d="M667.894 441.966C667.894 442.275 635.421 442.511 595.381 442.511C555.341 442.511 522.842 442.275 522.842 441.966C522.842 441.656 555.315 441.434 595.381 441.434C635.448 441.434 667.894 441.619 667.894 441.966Z" fill="#E0E0E0"/>
<path d="M606.259 402.102C606.259 402.399 573.773 402.647 533.733 402.647C493.693 402.647 461.208 402.399 461.208 402.102C461.208 401.805 493.667 401.558 533.733 401.558C573.8 401.558 606.259 401.805 606.259 402.102Z" fill="#FAFAFA"/>
<path d="M686.446 422.009C686.446 422.307 636.022 422.554 573.827 422.554C511.631 422.554 461.207 422.307 461.207 422.009C461.207 421.712 511.618 421.465 573.827 421.465C636.035 421.465 686.446 421.712 686.446 422.009Z" fill="#455A64"/>
<path d="M316.316 441.966C316.316 442.275 304.544 442.511 290.01 442.511C275.475 442.511 263.703 442.275 263.703 441.966C263.703 441.656 275.489 441.434 290.01 441.434C304.531 441.434 316.316 441.619 316.316 441.966Z" fill="#FAFAFA"/>
<path d="M737.977 441.966C737.977 442.275 726.206 442.511 711.684 442.511C697.163 442.511 685.378 442.275 685.378 441.966C685.378 441.656 697.15 441.434 711.684 441.434C726.219 441.434 737.977 441.619 737.977 441.966Z" fill="#BA68C8"/>
<path d="M752.005 539.768C752.005 539.941 617.684 540.09 452.025 540.09C286.366 540.09 152.019 539.917 152.019 539.768C152.019 539.619 286.313 539.446 452.025 539.446C617.737 539.446 752.005 539.57 752.005 539.768Z" fill="#263238"/>
<path d="M129.556 430.614C120.214 421.946 108.602 415.682 95.8609 412.437C83.1194 409.192 69.6869 409.078 56.8834 412.105C78.5761 425.816 104.175 433.232 130.424 433.411" fill="#BA68C8"/>
<path d="M104.905 349.648C107.934 329.778 99.5661 307.433 83.5501 292.997C83.0296 312.682 91.9852 334.829 104.905 349.648Z" fill="#BA68C8"/>
<path d="M117.731 387.172C106.149 366.767 87.7113 350.42 65.2118 340.611C68.7288 352.048 75.4666 362.409 84.7323 370.629C93.998 378.85 105.457 384.632 117.931 387.383" fill="#BA68C8"/>
<path d="M120.387 394.402C107.454 394.749 94.3609 394.328 81.8551 391.258C69.3493 388.187 57.3907 382.282 49.0356 373.096C74.3729 373.169 99.1236 380.175 120.187 393.238" fill="#BA68C8"/>
<path d="M113.82 370.558C120.387 347.729 131.171 331.945 150.564 319.156C152.046 330.38 149.159 341.725 142.422 351.149C135.686 360.573 125.543 367.456 113.82 370.558" fill="#BA68C8"/>
<path d="M162.642 409.927C162.691 403.267 160.617 396.743 156.679 391.175C152.742 385.606 147.118 381.242 140.514 378.63C141.595 390.416 151.578 404.046 162.642 409.927Z" fill="#BA68C8"/>
<path d="M168.822 390.676C169.724 381.12 173.549 372.001 179.848 364.393C186.147 356.785 194.657 351.004 204.378 347.729C199.906 366.807 188.028 382.691 168.822 390.676Z" fill="#BA68C8"/>
<path d="M159.506 424.832C164.071 418.778 171.518 415.015 179.219 413.145C186.92 411.276 194.968 411.103 202.923 410.954C197.503 416.409 190.875 420.712 183.494 423.567C176.112 426.422 168.152 427.762 160.16 427.494" fill="#BA68C8"/>
<path d="M150.27 473.473C164.786 469.319 180.453 470.362 194.181 476.396C207.908 482.43 218.699 493.018 224.424 506.07C197.531 501.39 170.904 490.248 150.27 473.473Z" fill="#BA68C8"/>
<path d="M120.707 456.574C125.178 468.843 124.311 483.674 114.368 494.247C112.386 487.92 111.927 481.266 113.022 474.757C114.118 468.247 116.741 462.04 120.707 456.574" fill="#BA68C8"/>
<path d="M103.223 449.753C102.502 457.662 99.5941 465.265 94.7802 471.828C89.9663 478.39 83.4092 483.69 75.7423 487.215C75.3857 487.426 74.9864 487.568 74.5689 487.632C74.1513 487.696 73.7241 487.68 73.3132 487.586C72.0986 487.128 71.9785 485.593 72.1387 484.38C74.0873 468.67 86.6465 453.43 103.223 449.716" fill="#BA68C8"/>
<path d="M91.8117 448.156C88.0147 451.961 83.4154 455.003 78.2991 457.091C73.1827 459.18 67.6584 460.271 62.0685 460.298C56.4787 460.325 50.9425 459.286 45.8032 457.246C40.664 455.207 36.0312 452.21 32.1921 448.441C51.1444 446.522 73.0062 445.234 91.8117 448.156Z" fill="#BA68C8"/>
<path d="M88.9689 307.631C88.9689 307.631 88.9689 307.816 89.1424 308.151L89.7296 309.636C90.2635 310.973 91.0643 312.88 92.0119 315.331C92.9595 317.782 94.2141 320.828 95.5755 324.356L97.7643 330.001L100.1 336.352C103.463 345.253 107.187 355.937 111.218 367.835C115.248 379.732 119.319 392.904 123.403 406.794C127.487 420.685 130.998 434.03 134.081 446.138C137.164 458.246 139.579 469.276 141.408 478.561C141.88 480.88 142.324 483.084 142.743 485.172C143.161 487.26 143.521 489.229 143.824 491.077C144.504 494.791 145.092 497.948 145.492 500.561C145.892 503.173 146.253 505.154 146.48 506.565C146.604 507.217 146.698 507.737 146.76 508.125C146.784 508.305 146.825 508.483 146.88 508.657C146.898 508.476 146.898 508.294 146.88 508.112C146.88 507.729 146.76 507.209 146.667 506.552C146.466 505.141 146.186 503.111 145.812 500.523C145.439 497.936 144.918 494.717 144.264 491.016C143.944 489.171 143.597 487.19 143.236 485.098C142.876 483.006 142.396 480.79 141.902 478.475C140.127 469.177 137.644 458.184 134.721 446.002C131.798 433.82 128.128 420.524 124.124 406.609C120.12 392.694 115.876 379.571 111.885 367.686C107.894 355.801 104.037 345.117 100.621 336.241C99.7307 334.012 98.9255 331.895 98.2048 329.89L95.9492 324.257C94.6145 320.741 93.2798 317.72 92.2788 315.269C91.2778 312.818 90.4237 310.948 89.8631 309.624C89.5828 309.005 89.3693 308.522 89.2225 308.163C89.1531 307.98 89.0683 307.802 88.9689 307.631V307.631Z" fill="#263238"/>
<path d="M193.073 357.918C193.073 357.918 192.953 358.005 192.739 358.203L191.832 359.082C191.044 359.862 189.896 361.038 188.468 362.585C184.404 366.925 180.675 371.525 177.31 376.352C172.287 383.536 168.361 391.331 165.645 399.515C162.509 408.726 160.574 419.199 158.638 430.155C154.795 452.068 150.057 471.703 146.626 485.865C144.905 492.934 143.503 498.666 142.516 502.678C142.049 504.621 141.688 506.156 141.435 507.246C141.314 507.741 141.234 508.137 141.168 508.484C141.144 508.619 141.144 508.757 141.168 508.892C141.168 508.892 141.168 508.756 141.301 508.496C141.435 508.236 141.501 507.803 141.635 507.32L142.863 502.777C143.89 498.765 145.372 493.058 147.187 486.002C150.737 471.827 155.555 452.204 159.413 430.292C161.348 419.335 163.256 408.887 166.326 399.713C169 391.574 172.857 383.81 177.791 376.637C181.117 371.795 184.772 367.156 188.735 362.746C190.07 361.187 191.244 359.986 191.992 359.181L192.846 358.252L193.073 357.918Z" fill="#263238"/>
<path d="M86.1527 447.413C86.3723 447.482 86.6018 447.519 86.8334 447.525L88.7953 447.735L90.2101 447.859L91.8918 448.094C93.093 448.255 94.4677 448.428 95.8958 448.725L98.2581 449.171L100.781 449.753C102.529 450.124 104.344 450.719 106.279 451.263C110.42 452.613 114.437 454.269 118.291 456.215C122.108 458.202 125.711 460.523 129.049 463.148C130.497 464.314 131.874 465.554 133.173 466.862C134.334 467.967 135.425 469.133 136.443 470.353C137.306 471.345 138.112 472.378 138.859 473.448C139.471 474.238 140.023 475.065 140.514 475.924L141.515 477.497C141.755 477.856 141.888 478.041 141.915 478.029C141.861 477.823 141.771 477.626 141.648 477.447L140.754 475.801C140.301 474.94 139.779 474.112 139.192 473.325C138.477 472.226 137.693 471.168 136.843 470.155C135.85 468.896 134.771 467.697 133.613 466.565C132.311 465.26 130.934 464.021 129.489 462.851C126.16 460.096 122.538 457.661 118.679 455.584C114.79 453.614 110.727 451.957 106.533 450.632C104.584 450.112 102.756 449.53 100.981 449.184L98.4316 448.626L96.096 448.267C94.5878 447.983 93.1997 447.846 91.9852 447.723L90.3035 447.537L88.8754 447.475L86.9001 447.401C86.6517 447.371 86.3998 447.375 86.1527 447.413V447.413Z" fill="#263238"/>
<path d="M80.7473 358.339C81.1447 358.794 81.592 359.208 82.082 359.577L86.0192 362.734C89.3292 365.359 93.9472 368.924 99.0589 372.898C104.171 376.872 108.855 380.326 112.245 382.901L116.249 385.885C116.733 386.264 117.251 386.604 117.798 386.9C117.397 386.448 116.95 386.033 116.463 385.662L112.566 382.542C109.256 379.917 104.651 376.352 99.5261 372.39C94.401 368.429 89.743 364.962 86.3529 362.387L82.3489 359.404C81.8574 358.997 81.3205 358.64 80.7473 358.339V358.339Z" fill="#263238"/>
<path d="M76.076 381.589C76.076 381.774 85.9792 384.647 98.2982 388.026C110.617 391.406 120.681 394.006 120.734 393.833C120.787 393.659 110.844 390.762 98.5117 387.383C86.1794 384.003 76.1561 381.415 76.076 381.589Z" fill="#263238"/>
<path d="M112.833 372.328C113.229 371.925 113.573 371.48 113.86 371.004L116.53 367.29C118.745 364.17 121.868 359.862 125.645 355.368C129.423 350.874 132.986 346.888 135.629 344.065L138.779 340.735C139.196 340.361 139.568 339.946 139.886 339.497C139.399 339.813 138.952 340.178 138.552 340.586C137.738 341.329 136.603 342.418 135.228 343.793C132.466 346.529 128.795 350.453 125.045 354.996C121.294 359.54 118.185 363.873 116.063 367.067C115.008 368.664 114.181 369.976 113.634 370.892C113.319 371.347 113.051 371.828 112.833 372.328Z" fill="#263238"/>
<path d="M147.387 385.241C148.084 386.474 148.864 387.665 149.723 388.806C151.218 390.973 153.233 393.981 155.315 397.386C157.397 400.79 159.172 403.935 160.414 406.237C161.028 407.517 161.733 408.757 162.522 409.951C162.114 408.609 161.564 407.307 160.881 406.064C159.746 403.712 158.051 400.518 155.942 397.089C153.834 393.659 151.752 390.676 150.15 388.571C149.346 387.381 148.421 386.266 147.387 385.241Z" fill="#263238"/>
<path d="M159.212 425.463C159.212 425.55 161.161 424.696 164.271 423.396C167.381 422.096 171.718 420.4 176.616 418.815C181.515 417.231 186.052 416.03 189.362 415.25C192.672 414.47 194.701 414.012 194.701 413.95C194.203 413.931 193.704 413.977 193.22 414.086C192.272 414.222 190.911 414.458 189.216 414.792C180.496 416.562 172.039 419.305 164.03 422.963C162.496 423.668 161.268 424.275 160.44 424.721C159.998 424.919 159.586 425.168 159.212 425.463V425.463Z" fill="#263238"/>
<path d="M149.91 473.547C149.91 473.547 150.11 473.646 150.524 473.745L152.312 474.166L158.985 475.59C166.281 477.006 173.494 478.771 180.594 480.876C187.662 483.068 194.43 486.018 200.761 489.666C203.176 491.09 205.058 492.353 206.326 493.256C206.964 493.75 207.633 494.209 208.328 494.631C208.328 494.631 208.181 494.457 207.874 494.185C207.567 493.912 207.114 493.516 206.54 493.046C204.798 491.693 202.976 490.432 201.081 489.27C194.787 485.476 187.996 482.444 180.874 480.245C173.748 478.12 166.487 476.408 159.132 475.12L152.459 473.882C151.618 473.72 150.766 473.609 149.91 473.547Z" fill="#263238"/>
<path d="M116.249 485.407C116.45 485.407 117.584 478.957 118.919 470.948C120.253 462.938 121.054 456.413 120.854 456.389C120.654 456.364 119.519 462.839 118.185 470.849C116.85 478.858 116.116 485.383 116.249 485.407Z" fill="#263238"/>
<path d="M81.2011 473.609C82.3373 472.516 83.394 471.354 84.3643 470.13C86.2595 467.939 88.8754 464.931 91.8518 461.65C94.8281 458.369 97.5641 455.46 99.5661 453.356C100.713 452.256 101.782 451.09 102.769 449.864C102.394 450.089 102.053 450.36 101.755 450.669C101.141 451.202 100.287 452.019 99.2325 453.034C97.137 455.064 94.3209 457.986 91.3446 461.217C88.3683 464.448 85.8057 467.568 84.0173 469.883C83.1097 471.022 82.4023 471.95 81.9352 472.594C81.642 472.9 81.3951 473.242 81.2011 473.609V473.609Z" fill="#263238"/>
<path d="M173.947 503.755V519.811H169.609L154.221 564.875H120.093L105.185 520.257L99.4059 519.811V503.755H173.947Z" fill="#BA68C8"/>
<g opacity="0.3">
<path opacity="0.3" d="M173.947 503.755V519.811H169.609L154.221 564.875H120.093L105.185 520.257L99.4059 519.811V503.755H173.947Z" fill="black"/>
</g>
<path d="M102.289 520.257C102.289 520.443 117.371 520.591 135.949 520.591C154.528 520.591 169.609 520.443 169.609 520.257C169.609 520.071 154.541 519.923 135.949 519.923C117.357 519.923 102.289 520.071 102.289 520.257Z" fill="#263238"/>
<path d="M77.7443 416.946C78.456 417.185 79.1882 417.367 79.9332 417.491L85.9258 418.84C90.9709 419.991 97.9378 421.749 105.425 424.102C112.913 426.454 119.626 428.93 124.404 430.836L130.05 433.127C130.725 433.442 131.425 433.706 132.145 433.919C131.52 433.525 130.859 433.181 130.17 432.891C128.835 432.272 126.98 431.418 124.604 430.415C118.422 427.804 112.101 425.486 105.666 423.47C99.225 421.46 92.6763 419.762 86.046 418.382C83.4967 417.862 81.428 417.478 79.9866 417.256C79.2506 417.091 78.5002 416.987 77.7443 416.946Z" fill="#263238"/>
<path d="M113.62 545.277C113.62 545.463 124.204 545.611 137.244 545.611C150.283 545.611 160.854 545.463 160.854 545.277C160.854 545.091 150.283 544.943 137.244 544.943C124.204 544.943 113.62 545.091 113.62 545.277Z" fill="#FAFAFA"/>
<path d="M112.299 541.551C112.299 541.736 123.51 541.885 137.324 541.885C151.138 541.885 162.349 541.736 162.349 541.551C162.349 541.365 151.151 541.216 137.324 541.216C123.497 541.216 112.299 541.365 112.299 541.551Z" fill="#FAFAFA"/>
<path d="M946.893 565.122C946.893 565.308 743.436 565.457 492.519 565.457C241.601 565.457 38.0914 565.308 38.0914 565.122C38.0914 564.937 241.575 564.8 492.492 564.8C743.409 564.8 946.893 564.949 946.893 565.122Z" fill="#263238"/>
<path d="M822.208 94.249H464.531V299.708H765.631L784.277 339.484L800.8 299.708H822.208V94.249Z" fill="#FAFAFA"/>
<path d="M822.155 94.2365C822.155 96.2297 822.248 173.469 822.422 299.745V299.992H800.8L801.054 299.831C795.888 312.298 790.31 325.73 784.544 339.608L784.29 340.239L783.997 339.62C778.151 327.166 771.838 313.684 765.311 299.844L765.591 300.017H493.319H464.184V299.695C464.184 226.467 464.184 156.978 464.184 94.187V93.9023H464.504L822.195 94.187L464.504 94.4841L464.824 94.187C464.824 156.941 464.824 226.43 464.824 299.695L464.477 299.373H493.279H765.551H765.752L765.832 299.546L784.517 339.336H783.97L800.546 299.596L800.613 299.423H822.155L821.888 299.67C822.155 173.419 822.155 96.2297 822.155 94.2365Z" fill="#263238"/>
<path d="M822.021 114.292C822.021 114.54 742.101 114.75 643.55 114.75C544.998 114.75 465.065 114.54 465.065 114.292C465.065 114.045 544.971 113.896 643.55 113.896C742.128 113.896 822.021 114.045 822.021 114.292Z" fill="#263238"/>
<path d="M483.536 105.23C483.536 105.769 483.364 106.296 483.041 106.744C482.717 107.193 482.258 107.542 481.721 107.747C481.183 107.953 480.592 108.006 480.022 107.9C479.452 107.794 478.929 107.534 478.519 107.151C478.109 106.769 477.83 106.283 477.719 105.754C477.607 105.225 477.667 104.677 477.891 104.179C478.115 103.682 478.494 103.257 478.978 102.959C479.463 102.662 480.032 102.504 480.613 102.506C481.39 102.51 482.133 102.798 482.681 103.308C483.229 103.819 483.536 104.51 483.536 105.23V105.23Z" fill="#263238"/>
<path d="M494.147 105.23C494.147 105.769 493.974 106.296 493.651 106.744C493.328 107.193 492.869 107.542 492.331 107.747C491.794 107.953 491.203 108.006 490.633 107.9C490.063 107.794 489.54 107.534 489.13 107.151C488.72 106.769 488.441 106.283 488.329 105.754C488.217 105.225 488.277 104.677 488.502 104.179C488.726 103.682 489.104 103.257 489.589 102.959C490.074 102.662 490.643 102.504 491.224 102.506C492 102.51 492.744 102.798 493.292 103.308C493.84 103.819 494.147 104.51 494.147 105.23V105.23Z" fill="#263238"/>
<path d="M504.758 105.23C504.758 105.769 504.585 106.295 504.263 106.743C503.94 107.191 503.482 107.54 502.945 107.746C502.408 107.952 501.818 108.006 501.249 107.901C500.679 107.796 500.156 107.537 499.745 107.156C499.334 106.775 499.055 106.29 498.942 105.761C498.828 105.233 498.886 104.685 499.109 104.188C499.331 103.69 499.707 103.265 500.19 102.965C500.673 102.666 501.241 102.506 501.821 102.506C502.6 102.506 503.347 102.793 503.898 103.304C504.448 103.815 504.758 104.508 504.758 105.23V105.23Z" fill="#263238"/>
<path d="M503.543 151.036L495.055 154.081L503.543 157.115V158.959L492.866 155.035V153.141L503.543 149.204V151.036Z" fill="#263238"/>
<path d="M512.379 143.175H514.461L506.559 164.072H504.504L512.379 143.175Z" fill="#263238"/>
<path d="M525.859 153.141V155.047L515.181 158.972V157.127L523.697 154.094L515.181 151.036V149.191L525.859 153.141Z" fill="#263238"/>
<path d="M528.608 160.457C528.605 160.258 528.644 160.06 528.725 159.875C528.805 159.69 528.925 159.523 529.077 159.382C529.229 159.241 529.41 159.13 529.609 159.055C529.808 158.98 530.022 158.943 530.236 158.947C530.449 158.945 530.66 158.983 530.856 159.059C531.052 159.135 531.23 159.246 531.378 159.388C531.526 159.529 531.643 159.696 531.719 159.88C531.796 160.064 531.832 160.26 531.825 160.457C531.832 160.655 531.796 160.853 531.72 161.038C531.643 161.223 531.528 161.392 531.38 161.535C531.231 161.678 531.054 161.793 530.858 161.871C530.661 161.95 530.45 161.991 530.236 161.992C530.02 161.992 529.806 161.952 529.607 161.875C529.408 161.798 529.227 161.684 529.076 161.541C528.924 161.398 528.805 161.229 528.724 161.043C528.644 160.857 528.605 160.658 528.608 160.457V160.457Z" fill="#263238"/>
<path d="M534.053 160.457C534.048 160.257 534.086 160.059 534.166 159.873C534.246 159.688 534.366 159.519 534.518 159.378C534.67 159.237 534.852 159.125 535.052 159.051C535.252 158.977 535.466 158.942 535.682 158.947C535.893 158.947 536.102 158.986 536.297 159.063C536.492 159.139 536.668 159.251 536.815 159.392C536.962 159.533 537.076 159.7 537.152 159.883C537.228 160.066 537.264 160.261 537.257 160.457C537.264 160.654 537.228 160.851 537.153 161.035C537.077 161.22 536.963 161.388 536.816 161.531C536.669 161.674 536.494 161.788 536.299 161.867C536.104 161.947 535.894 161.989 535.682 161.992C535.465 161.994 535.25 161.955 535.05 161.878C534.85 161.802 534.669 161.688 534.517 161.545C534.365 161.402 534.245 161.232 534.166 161.045C534.086 160.858 534.048 160.658 534.053 160.457V160.457Z" fill="#263238"/>
<path d="M539.486 160.457C539.48 160.257 539.518 160.059 539.598 159.873C539.678 159.688 539.798 159.519 539.95 159.378C540.103 159.237 540.284 159.125 540.484 159.051C540.684 158.977 540.899 158.942 541.114 158.947C541.325 158.947 541.535 158.986 541.729 159.063C541.924 159.139 542.1 159.251 542.247 159.392C542.394 159.533 542.509 159.7 542.585 159.883C542.661 160.066 542.696 160.261 542.689 160.457C542.696 160.654 542.661 160.851 542.585 161.035C542.509 161.22 542.395 161.388 542.248 161.531C542.102 161.674 541.926 161.788 541.731 161.867C541.536 161.947 541.327 161.989 541.114 161.992C540.897 161.994 540.683 161.955 540.482 161.878C540.282 161.802 540.101 161.688 539.949 161.545C539.797 161.402 539.678 161.232 539.598 161.045C539.518 160.858 539.48 160.658 539.486 160.457V160.457Z" fill="#263238"/>
<path d="M729.395 180.389C729.395 180.637 676.529 180.835 611.317 180.835C546.106 180.835 493.226 180.637 493.226 180.389C493.226 180.141 546.092 179.931 611.317 179.931C676.542 179.931 729.395 180.129 729.395 180.389Z" fill="#455A64"/>
<path d="M767.967 181.033C767.967 181.28 762.896 181.491 756.623 181.491C750.35 181.491 745.278 181.28 745.278 181.033C745.278 180.785 750.363 180.575 756.623 180.575C762.882 180.575 767.967 180.748 767.967 181.033Z" fill="#263238"/>
<path d="M801.134 181.033C801.134 181.28 795.582 181.491 788.748 181.491C781.914 181.491 776.349 181.28 776.349 181.033C776.349 180.785 781.901 180.575 788.748 180.575C795.595 180.575 801.134 180.748 801.134 181.033Z" fill="#263238"/>
<path d="M643.616 198.848C643.616 199.095 610.009 199.293 568.555 199.293C527.1 199.293 493.506 199.095 493.506 198.848C493.506 198.6 527.1 198.389 568.555 198.389C610.009 198.389 643.616 198.588 643.616 198.848Z" fill="#455A64"/>
<path d="M642.535 267.718C642.535 267.965 608.928 268.163 567.487 268.163C526.045 268.163 492.425 267.965 492.425 267.718C492.425 267.47 526.032 267.259 567.487 267.259C608.942 267.259 642.535 267.47 642.535 267.718Z" fill="#455A64"/>
<path d="M698.151 198.848C698.151 199.095 689.008 199.293 677.73 199.293C666.452 199.293 657.31 199.095 657.31 198.848C657.31 198.6 666.452 198.389 677.73 198.389C689.008 198.389 698.151 198.588 698.151 198.848Z" fill="#263238"/>
<path d="M697.724 267.718C697.724 267.965 688.581 268.163 677.303 268.163C666.025 268.163 656.883 267.965 656.883 267.718C656.883 267.47 666.025 267.259 677.303 267.259C688.581 267.259 697.724 267.47 697.724 267.718Z" fill="#263238"/>
<path d="M503.356 208.232C503.356 208.479 501.087 208.69 498.284 208.69C495.482 208.69 493.226 208.479 493.226 208.232C493.226 207.984 495.495 207.786 498.284 207.786C501.074 207.786 503.356 207.984 503.356 208.232Z" fill="#BA68C8"/>
<path d="M538.258 208.43C538.258 208.677 533.333 208.875 527.26 208.875C521.187 208.875 516.262 208.677 516.262 208.43C516.262 208.182 521.187 207.972 527.26 207.972C533.333 207.972 538.258 208.182 538.258 208.43Z" fill="#263238"/>
<path d="M560.56 208.43C560.56 208.677 556.343 208.875 551.137 208.875C545.932 208.875 541.715 208.677 541.715 208.43C541.715 208.182 545.932 207.972 551.137 207.972C556.343 207.972 560.56 208.182 560.56 208.43Z" fill="#263238"/>
<path d="M588.882 208.43C588.882 208.677 584.584 208.875 579.285 208.875C573.987 208.875 569.676 208.677 569.676 208.43C569.676 208.182 573.973 207.972 579.285 207.972C584.597 207.972 588.882 208.182 588.882 208.43Z" fill="#263238"/>
<path d="M613.666 208.43C613.666 208.677 609.756 208.875 604.938 208.875C600.12 208.875 596.209 208.677 596.209 208.43C596.209 208.182 600.12 207.972 604.938 207.972C609.756 207.972 613.666 208.182 613.666 208.43Z" fill="#263238"/>
<path d="M695.708 208.43C695.708 208.677 678.518 208.875 657.31 208.875C636.102 208.875 618.898 208.677 618.898 208.43C618.898 208.182 636.089 207.972 657.31 207.972C678.531 207.972 695.708 208.182 695.708 208.43Z" fill="#263238"/>
<path d="M501.955 220.215C501.955 220.463 500.006 220.673 497.59 220.673C495.175 220.673 493.226 220.463 493.226 220.215C493.226 219.968 495.175 219.757 497.59 219.757C500.006 219.757 501.955 219.968 501.955 220.215Z" fill="#BA68C8"/>
<path d="M502.302 232.521C502.302 232.769 500.273 232.979 497.764 232.979C495.255 232.979 493.226 232.769 493.226 232.521C493.226 232.274 495.255 232.063 497.764 232.063C500.273 232.063 502.302 232.274 502.302 232.521Z" fill="#BA68C8"/>
<path d="M502.302 246.449C502.302 246.696 500.273 246.894 497.764 246.894C495.255 246.894 493.226 246.696 493.226 246.449C493.226 246.201 495.255 245.991 497.764 245.991C500.273 245.991 502.302 246.189 502.302 246.449Z" fill="#BA68C8"/>
<path d="M585.038 245.792C585.038 246.052 569.876 246.251 551.177 246.251C532.479 246.251 517.317 246.052 517.317 245.792C517.317 245.533 532.479 245.347 551.177 245.347C569.876 245.347 585.038 245.545 585.038 245.792Z" fill="#263238"/>
<path d="M579.112 232.521C579.112 232.769 564.644 232.979 546.813 232.979C528.982 232.979 514.527 232.769 514.527 232.521C514.527 232.274 528.982 232.063 546.813 232.063C564.644 232.063 579.112 232.274 579.112 232.521Z" fill="#263238"/>
<path d="M735.161 219.572C735.161 219.819 685.912 220.017 625.198 220.017C564.484 220.017 515.221 219.819 515.221 219.572C515.221 219.324 564.444 219.114 625.198 219.114C685.952 219.114 735.161 219.312 735.161 219.572Z" fill="#263238"/>
<path d="M844.177 178.272V352.879L814.907 375.522H844.177H847.06H967.98V178.272H844.177Z" fill="#FAFAFA"/>
<path d="M844.177 178.272C844.177 178.272 844.911 178.272 846.339 178.272H852.745H877.397L967.981 178.148H968.248V178.396C968.248 231.097 968.247 299.93 968.328 375.646V375.968H946.519H814.907H814.026L814.707 375.436L843.99 352.793L843.87 353.016C843.936 300.809 843.99 257.133 844.03 226.492C844.03 211.203 844.097 199.169 844.11 190.949C844.11 186.864 844.11 183.732 844.11 181.59C844.11 180.55 844.11 179.745 844.11 179.2C844.11 178.656 844.11 178.408 844.11 178.408C844.11 178.408 844.11 178.693 844.11 179.238C844.11 179.782 844.11 180.599 844.11 181.714C844.11 183.855 844.11 187.012 844.11 191.122C844.11 199.355 844.11 211.413 844.19 226.715C844.19 257.318 844.27 300.995 844.337 353.065V353.189L844.23 353.276L814.974 375.943L814.761 375.411H946.372H967.834L967.487 375.733C967.487 300.017 967.487 231.184 967.567 178.482L967.834 178.718L877.41 178.594L852.852 178.272H846.392H844.177Z" fill="#263238"/>
<path d="M855.428 186.938C855.428 187.398 855.281 187.848 855.005 188.231C854.729 188.614 854.337 188.912 853.879 189.088C853.42 189.264 852.916 189.311 852.429 189.221C851.942 189.131 851.495 188.909 851.144 188.584C850.794 188.258 850.555 187.844 850.458 187.392C850.361 186.941 850.411 186.473 850.601 186.047C850.79 185.622 851.112 185.259 851.525 185.003C851.937 184.747 852.422 184.611 852.919 184.611C853.584 184.611 854.222 184.856 854.693 185.292C855.163 185.729 855.428 186.321 855.428 186.938V186.938Z" fill="#263238"/>
<path d="M864.504 186.938C864.504 187.398 864.356 187.848 864.081 188.231C863.805 188.614 863.413 188.912 862.955 189.088C862.496 189.264 861.992 189.311 861.505 189.221C861.018 189.131 860.571 188.909 860.22 188.584C859.869 188.258 859.63 187.844 859.533 187.392C859.437 186.941 859.486 186.473 859.676 186.047C859.866 185.622 860.188 185.259 860.6 185.003C861.013 184.747 861.498 184.611 861.994 184.611C862.66 184.611 863.298 184.856 863.769 185.292C864.239 185.729 864.504 186.321 864.504 186.938V186.938Z" fill="#263238"/>
<path d="M873.579 186.938C873.579 187.398 873.432 187.848 873.156 188.231C872.881 188.614 872.489 188.912 872.03 189.088C871.572 189.264 871.067 189.311 870.581 189.221C870.094 189.131 869.647 188.909 869.296 188.584C868.945 188.258 868.706 187.844 868.609 187.392C868.512 186.941 868.562 186.473 868.752 186.047C868.942 185.622 869.264 185.259 869.676 185.003C870.089 184.747 870.574 184.611 871.07 184.611C871.736 184.611 872.374 184.856 872.844 185.292C873.315 185.729 873.579 186.321 873.579 186.938V186.938Z" fill="#263238"/>
<path d="M933.946 240.754C933.946 240.964 918.251 241.125 898.898 241.125C879.545 241.125 863.85 240.964 863.85 240.754C863.85 240.543 879.532 240.382 898.898 240.382C918.264 240.382 933.946 240.543 933.946 240.754Z" fill="#BA68C8"/>
<path d="M948.574 256.551C948.574 256.749 929.475 256.922 905.865 256.922C882.255 256.922 863.156 256.749 863.156 256.551C863.156 256.353 882.255 256.179 905.865 256.179C929.475 256.179 948.574 256.34 948.574 256.551Z" fill="#BA68C8"/>
<path d="M952.044 315.48C952.044 315.69 931.677 315.851 906.559 315.851C881.441 315.851 861.073 315.69 861.073 315.48C861.073 315.269 881.441 315.108 906.559 315.108C931.677 315.108 952.044 315.281 952.044 315.48Z" fill="#BA68C8"/>
<path d="M870.416 264.585C867.554 265.081 864.617 265.081 861.754 264.585C864.617 264.09 867.554 264.09 870.416 264.585V264.585Z" fill="#BA68C8"/>
<path d="M900.299 264.746C900.299 264.957 896.082 265.118 890.957 265.118C885.832 265.118 881.614 264.957 881.614 264.746C887.876 264.251 894.171 264.251 900.433 264.746H900.299Z" fill="#BA68C8"/>
<path d="M919.412 264.746C919.412 264.957 915.808 265.118 911.404 265.118C906.999 265.118 903.329 264.957 903.329 264.746C908.695 264.251 914.1 264.251 919.465 264.746H919.412Z" fill="#BA68C8"/>
<path d="M869.228 274.836C866.766 275.331 864.217 275.331 861.754 274.836C864.217 274.341 866.766 274.341 869.228 274.836Z" fill="#BA68C8"/>
<path d="M869.522 285.371C866.96 285.867 864.316 285.867 861.754 285.371C864.314 284.859 866.962 284.859 869.522 285.371Z" fill="#BA68C8"/>
<path d="M869.522 297.281C866.96 297.776 864.316 297.776 861.754 297.281C864.316 296.786 866.96 296.786 869.522 297.281V297.281Z" fill="#BA68C8"/>
<path d="M940.326 296.724C940.326 296.934 927.353 297.095 911.351 297.095C895.348 297.095 882.375 296.934 882.375 296.724C882.375 296.513 895.348 296.352 911.351 296.352C927.353 296.352 940.326 296.526 940.326 296.724Z" fill="#BA68C8"/>
<path d="M935.241 285.371C935.241 285.569 922.869 285.743 907.613 285.743C892.358 285.743 879.986 285.569 879.986 285.371C879.986 285.173 892.345 284.988 907.613 284.988C922.882 284.988 935.241 285.161 935.241 285.371Z" fill="#BA68C8"/>
<path d="M875.181 331.215C872.619 331.71 869.975 331.71 867.413 331.215C869.975 330.719 872.619 330.719 875.181 331.215V331.215Z" fill="#BA68C8"/>
<path d="M875.181 343.136C872.619 343.632 869.975 343.632 867.413 343.136C869.973 342.625 872.621 342.625 875.181 343.136V343.136Z" fill="#BA68C8"/>
<path d="M945.985 342.579C945.985 342.777 933.012 342.951 917.009 342.951C901.007 342.951 888.034 342.777 888.034 342.579C888.034 342.381 900.993 342.208 917.009 342.208C933.025 342.208 945.985 342.369 945.985 342.579Z" fill="#BA68C8"/>
<path d="M940.94 331.215C940.94 331.425 928.568 331.586 913.312 331.586C898.057 331.586 885.671 331.425 885.671 331.215C885.671 331.004 898.044 330.843 913.312 330.843C928.581 330.843 940.94 331.004 940.94 331.215Z" fill="#BA68C8"/>
<path d="M955.795 274.279C955.795 274.489 938.951 274.65 918.184 274.65C897.417 274.65 880.573 274.489 880.573 274.279C880.573 274.068 897.417 273.907 918.184 273.907C938.951 273.907 955.795 274.081 955.795 274.279Z" fill="#BA68C8"/>
<path d="M966.819 196.074C966.819 196.273 939.632 196.446 906.105 196.446C872.578 196.446 845.391 196.273 845.391 196.074C845.391 195.876 872.565 195.703 906.105 195.703C939.645 195.703 966.819 195.864 966.819 196.074Z" fill="#263238"/>
<path d="M889.462 231.234C880.919 231.729 872.352 231.729 863.81 231.234C863.81 231.023 869.549 230.862 876.636 230.862C883.723 230.862 889.462 231.023 889.462 231.234Z" fill="#BA68C8"/>
<path d="M874.941 209.68C874.941 209.891 872.271 210.051 868.895 210.051C865.518 210.051 862.849 209.891 862.849 209.68C866.862 209.185 870.928 209.185 874.941 209.68Z" fill="#BA68C8"/>
<path d="M767.794 463.953L794.674 439.304L746.733 363.155C741.744 357.859 735.428 353.782 728.341 351.283L711.458 345.328L669.482 338.184L639.693 349.116C636.027 350.453 632.943 352.88 630.921 356.015C628.9 359.151 628.056 362.82 628.521 366.448L636.316 427.308L640.907 506.54L749.189 489.109L738.298 459.806L738.658 414.099L767.794 463.953Z" fill="#BA68C8"/>
<path d="M739.285 457.837C739.539 457.837 739.605 442.003 739.432 422.48C739.258 402.957 738.925 387.123 738.671 387.123C738.418 387.123 738.351 402.957 738.524 422.48C738.698 442.003 739.032 457.837 739.285 457.837Z" fill="#263238"/>
<path d="M735.321 469.45L669.923 445.024C667.335 444.057 665.089 442.439 663.438 440.353C661.788 438.266 660.798 435.793 660.58 433.213L655.802 375.027C655.802 375.027 656.362 350.267 639.706 349.029L630.216 352.483C617.951 358.574 614.921 375.114 616.616 387.89C618.978 406.039 619.966 431.728 622.622 447.487C624.798 460.375 633.139 470.564 646.352 475.033L726.94 491.214L735.321 469.45Z" fill="#BA68C8"/>
<path d="M656.723 383.904C656.822 384.341 656.889 384.783 656.923 385.228C657.03 386.182 657.176 387.457 657.35 389.066C657.684 392.471 658.151 397.274 658.685 403.179C659.219 409.085 659.886 416.253 660.62 424.114C660.793 426.082 660.98 428.1 661.167 430.168C661.298 432.246 661.579 434.314 662.008 436.358C662.46 438.439 663.593 440.341 665.251 441.805C667.049 443.262 669.091 444.437 671.297 445.284C689.329 452.526 705.999 458.506 718.011 462.702L732.345 467.654L736.242 468.979C736.704 469.113 737.151 469.287 737.577 469.499C737.124 469.408 736.678 469.288 736.242 469.14L732.238 467.902C728.808 466.85 723.87 465.265 717.797 463.247C705.665 459.174 689.008 453.343 670.91 446.027C668.62 445.137 666.501 443.908 664.637 442.387C662.852 440.816 661.634 438.77 661.154 436.531C660.72 434.439 660.444 432.321 660.326 430.193C660.139 428.129 659.966 426.111 659.806 424.139C659.138 416.265 658.551 409.171 658.044 403.179C657.537 397.188 657.217 392.471 656.936 389.054C656.829 387.444 656.749 386.157 656.683 385.204C656.665 384.77 656.679 384.336 656.723 383.904V383.904Z" fill="#263238"/>
<path d="M619.285 415.535C619.378 415.786 619.423 416.049 619.419 416.315C619.419 416.921 619.552 417.664 619.632 418.555C619.833 420.635 620.099 423.421 620.406 426.813C620.713 430.205 621.221 434.439 621.875 439.02C622.52 443.988 623.51 448.913 624.838 453.764C625.447 456.26 626.527 458.636 628.027 460.784C629.473 462.772 631.108 464.637 632.912 466.355C635.969 469.281 639.505 471.742 643.389 473.646C647.004 475.351 650.88 476.529 654.881 477.138C654.597 477.167 654.311 477.167 654.027 477.138C653.211 477.096 652.399 477 651.598 476.853C648.623 476.331 645.743 475.423 643.042 474.154C639.056 472.288 635.423 469.834 632.285 466.887C630.426 465.15 628.746 463.256 627.267 461.229C625.702 459.012 624.573 456.556 623.93 453.975C622.598 449.089 621.626 444.126 621.02 439.119C620.42 434.513 620.019 430.354 619.686 426.862C619.352 423.371 619.272 420.536 619.192 418.58C619.192 417.676 619.192 416.934 619.192 416.315C619.188 416.052 619.22 415.79 619.285 415.535V415.535Z" fill="#263238"/>
<path d="M647.22 456.252C647.384 455.11 647.787 454.008 648.408 453.009C649.75 450.524 651.616 448.314 653.895 446.508C656.173 444.703 658.818 443.34 661.674 442.498C662.832 442.087 664.065 441.89 665.305 441.916C665.305 442.053 663.97 442.3 661.888 443.043C659.188 444.014 656.68 445.395 654.467 447.128C652.266 448.888 650.403 450.981 648.955 453.318C647.834 455.076 647.313 456.29 647.22 456.252Z" fill="#263238"/>
<g opacity="0.3">
<path opacity="0.3" d="M716.516 462.517C709.522 458.803 702.675 456.03 695.362 452.947C688.048 449.864 680.88 445.903 676.102 439.923C667.067 428.633 668.094 412.341 658.858 401.199L660.66 423.668C661.221 430.539 660.086 437.286 664.851 441.991C668.855 445.915 676.703 448.936 682.202 450.657C693.346 454.061 705.345 459.125 716.476 462.542" fill="black"/>
</g>
<path opacity="0.3" d="M738.671 391.406L744.33 423.792L738.978 414.619L738.671 391.406Z" fill="black"/>
<path d="M654.747 371.4C654.252 371.499 653.745 371.537 653.239 371.511L649.102 371.61C645.618 371.697 640.813 371.858 635.515 372.205C630.216 372.551 625.438 373.034 621.968 373.443L617.87 373.888C617.373 373.969 616.867 374.002 616.362 373.987C616.831 373.808 617.326 373.691 617.83 373.641C618.791 373.455 620.179 373.232 621.834 372.985C625.291 372.489 630.083 371.945 635.395 371.586C640.707 371.227 645.538 371.14 649.035 371.177C650.783 371.177 652.198 371.239 653.172 371.289C653.7 371.273 654.228 371.31 654.747 371.4V371.4Z" fill="#455A64"/>
<path d="M656.656 402.424C656.656 402.598 648.088 403.402 637.504 404.207C626.92 405.012 618.298 405.544 618.284 405.358C618.271 405.173 626.84 404.38 637.437 403.563C648.034 402.746 656.656 402.239 656.656 402.424Z" fill="#455A64"/>
<path d="M659.766 434.996C659.35 435.279 658.903 435.52 658.431 435.714C657.537 436.147 656.229 436.717 654.561 437.361C645.9 440.72 636.671 442.639 627.293 443.031C625.492 443.105 624.037 443.105 623.036 443.031C622.517 443.057 621.996 443.02 621.488 442.919C621.997 442.825 622.516 442.78 623.036 442.783C624.037 442.783 625.478 442.672 627.267 442.535C631.889 442.234 636.483 441.63 641.014 440.728C645.553 439.788 650.013 438.547 654.36 437.014C656.029 436.42 657.377 435.925 658.364 435.566C658.806 435.326 659.277 435.135 659.766 434.996V434.996Z" fill="#455A64"/>
<path d="M683.029 451.709C680.664 453.069 678.486 454.69 676.543 456.537C674.772 458.527 673.253 460.7 672.018 463.012C672.106 462.238 672.35 461.486 672.739 460.796C674.394 457.339 677.2 454.467 680.747 452.6C681.435 452.163 682.211 451.86 683.029 451.709V451.709Z" fill="#455A64"/>
<path d="M706.693 473.151C707.731 468.658 710.162 464.545 713.686 461.316C713.846 461.44 711.791 463.792 709.869 467.073C707.947 470.353 706.893 473.213 706.693 473.151Z" fill="#455A64"/>
<path d="M669.402 353.201C666.372 354.033 663.281 354.662 660.153 355.083C657.075 355.705 653.953 356.119 650.81 356.321C653.838 355.48 656.93 354.851 660.059 354.439C663.137 353.817 666.26 353.404 669.402 353.201V353.201Z" fill="#455A64"/>
<path d="M732.038 355.851C727.74 355.7 723.454 355.337 719.198 354.761C714.919 354.401 710.664 353.822 706.452 353.028C710.75 353.186 715.035 353.55 719.292 354.118C723.571 354.485 727.825 355.064 732.038 355.851V355.851Z" fill="#455A64"/>
<path d="M737.377 382.864C737.107 382.901 736.832 382.901 736.563 382.864H734.213H725.578C718.291 382.864 708.228 382.864 697.11 383.173C685.992 383.483 675.942 383.867 668.655 384.226L660.033 384.647L657.697 384.733C657.423 384.771 657.144 384.771 656.87 384.733C657.137 384.673 657.409 384.636 657.684 384.622L660.019 384.399C662.048 384.226 664.984 384.015 668.628 383.78C675.902 383.31 685.979 382.814 697.096 382.542C708.214 382.27 718.291 382.294 725.592 382.418C729.235 382.48 732.185 382.554 734.213 382.641L736.563 382.74C736.838 382.757 737.11 382.799 737.377 382.864V382.864Z" fill="#455A64"/>
<path d="M738.151 417.095C738.151 417.268 721 418.456 699.819 419.756C678.638 421.056 661.447 421.948 661.434 421.774C661.421 421.601 678.585 420.4 699.766 419.113C720.947 417.825 738.137 416.909 738.151 417.095Z" fill="#455A64"/>
<path d="M736.322 447.24C735.864 447.475 735.381 447.666 734.881 447.809C733.933 448.144 732.558 448.577 730.877 449.047C727.447 450.087 722.655 451.387 717.303 452.588C711.951 453.789 707.053 454.643 703.489 455.151C701.701 455.423 700.259 455.609 699.258 455.708C698.738 455.788 698.211 455.821 697.684 455.807C698.18 455.639 698.695 455.523 699.218 455.46L703.396 454.705C706.933 454.074 711.804 453.145 717.143 451.957C722.482 450.768 727.273 449.543 730.73 448.614L734.827 447.512C735.312 447.365 735.814 447.273 736.322 447.24V447.24Z" fill="#455A64"/>
<path d="M763.776 392.595C759.689 393.909 755.528 395.017 751.311 395.912C747.152 397.02 742.933 397.921 738.671 398.611C742.76 397.301 746.921 396.193 751.137 395.293C755.294 394.18 759.513 393.279 763.776 392.595V392.595Z" fill="#455A64"/>
<path d="M750.683 369.456C748.909 370.08 747.057 370.496 745.171 370.694C743.319 371.113 741.419 371.321 739.512 371.313C741.295 370.699 743.149 370.284 745.038 370.075C746.885 369.657 748.781 369.449 750.683 369.456V369.456Z" fill="#455A64"/>
<path d="M656.923 376.637C656.79 376.637 656.576 374.582 655.361 371.474C653.785 367.412 651.149 363.776 647.688 360.89C644.227 358.004 640.05 355.958 635.528 354.935C632.058 354.142 629.803 354.179 629.816 354.056C630.335 353.969 630.865 353.948 631.391 353.994C632.819 354.047 634.239 354.217 635.635 354.501C640.294 355.417 644.612 357.454 648.154 360.407C651.696 363.36 654.338 367.126 655.815 371.326C656.274 372.582 656.604 373.875 656.803 375.188C656.914 375.664 656.954 376.151 656.923 376.637V376.637Z" fill="#263238"/>
<path d="M734.867 360.134C735.872 363.861 736.643 367.64 737.176 371.45C737.951 375.227 738.49 379.042 738.791 382.876C737.802 379.142 737.036 375.361 736.496 371.549C735.723 367.775 735.179 363.964 734.867 360.134Z" fill="#263238"/>
<path d="M807.794 542.603C807.794 542.603 858.084 555.503 860.099 556.221C863.129 557.211 862.622 567.499 857.91 567.363C855.682 567.289 819.285 568.601 814.681 568.353C810.076 568.106 796.209 563.018 796.209 563.018L807.794 542.603Z" fill="#BA68C8"/>
<path d="M828.748 560.393C829.001 560.393 829.335 557.917 830.963 555.441C832.592 552.965 834.674 551.331 834.514 551.145C834.354 550.959 831.924 552.284 830.229 555.045C828.534 557.806 828.534 560.418 828.748 560.393Z" fill="#263238"/>
<path d="M823.489 558.189C823.73 558.189 824.237 556.023 825.585 553.584C826.933 551.145 828.508 549.449 828.254 549.288C826.697 550.259 825.481 551.632 824.757 553.237C823.489 555.862 823.289 558.177 823.489 558.189Z" fill="#263238"/>
<path d="M818.578 556.976C818.831 556.976 818.578 554.624 819.752 552.024C820.927 549.424 822.675 547.84 822.502 547.666C822.328 547.493 820.139 548.904 818.978 551.752C817.817 554.599 818.378 557.1 818.578 556.976Z" fill="#263238"/>
<path d="M819.485 550.91C819.933 549.8 820.119 548.614 820.033 547.431C820.016 546.15 819.841 544.875 819.512 543.631C819.324 542.891 819.074 542.167 818.765 541.464C818.612 541.025 818.336 540.632 817.964 540.325C817.714 540.147 817.404 540.056 817.088 540.07C816.773 540.083 816.473 540.2 816.242 540.399C815.848 540.749 815.606 541.22 815.562 541.724C815.535 542.136 815.535 542.55 815.562 542.962C815.565 543.734 815.668 544.503 815.868 545.252C816.207 546.501 816.728 547.7 817.417 548.818C817.977 549.875 818.742 550.827 819.672 551.628C819.792 551.554 818.952 550.464 817.937 548.558C817.349 547.454 816.901 546.291 816.603 545.091C816.446 544.391 816.365 543.677 816.362 542.962C816.362 542.244 816.362 541.353 816.829 541.006C816.919 540.926 817.039 540.881 817.163 540.881C817.288 540.881 817.407 540.926 817.497 541.006C817.753 541.229 817.942 541.511 818.044 541.823C818.347 542.491 818.601 543.178 818.805 543.878C819.157 545.068 819.381 546.287 819.472 547.518C819.565 549.672 819.339 550.91 819.485 550.91Z" fill="#263238"/>
<path d="M819.486 550.477C818.458 550.074 817.341 549.905 816.229 549.982C815.028 549.982 813.831 550.119 812.665 550.39C811.948 550.534 811.256 550.772 810.61 551.096C810.198 551.289 809.865 551.601 809.66 551.985C809.456 552.369 809.391 552.804 809.475 553.225C809.588 553.628 809.816 553.995 810.136 554.287C810.456 554.579 810.855 554.785 811.291 554.884C812.031 555.057 812.806 555.057 813.546 554.884C814.736 554.599 815.849 554.089 816.816 553.386C817.726 552.807 818.518 552.082 819.152 551.244C818.219 551.744 817.326 552.307 816.483 552.928C815.55 553.52 814.503 553.94 813.399 554.166C812.786 554.308 812.144 554.308 811.531 554.166C811.241 554.097 810.975 553.959 810.759 553.766C810.544 553.573 810.387 553.331 810.303 553.064C810.258 552.8 810.306 552.529 810.441 552.293C810.576 552.056 810.79 551.866 811.05 551.752C811.629 551.464 812.243 551.244 812.879 551.096C813.986 550.809 815.122 550.626 816.269 550.551C818.151 550.415 819.392 550.6 819.486 550.477Z" fill="#263238"/>
<path d="M836.476 560.901C836.716 560.901 836.476 558.883 837.463 556.691C838.451 554.5 840.133 553.213 839.919 553.039C839.706 552.866 837.744 553.955 836.689 556.394C835.635 558.833 836.262 560.975 836.476 560.901Z" fill="#263238"/>
<path d="M801.387 563.055C801.999 563.397 802.647 563.679 803.322 563.897C805.148 564.553 807.021 565.091 808.928 565.506C815.229 566.786 821.673 567.351 828.121 567.19C835.661 567.115 842.455 566.806 847.38 566.62L853.199 566.335C853.916 566.329 854.631 566.258 855.334 566.125C854.624 566.018 853.904 565.985 853.186 566.026H847.353L828.121 566.373C821.726 566.52 815.333 566.038 809.048 564.937C804.243 564.058 801.441 562.906 801.387 563.055Z" fill="#263238"/>
<path d="M799.893 564.119C799.893 564.218 801.334 563.476 803.656 562.535C806.616 561.224 809.914 560.714 813.172 561.062C816.377 561.706 819.267 563.301 821.407 565.605C822.304 566.582 823.271 567.5 824.304 568.353C823.636 567.211 822.805 566.158 821.834 565.221C820.848 564.146 819.734 563.178 818.511 562.337C816.976 561.282 815.191 560.581 813.306 560.294C809.91 559.927 806.475 560.541 803.469 562.052C802.165 562.558 800.957 563.256 799.893 564.119V564.119Z" fill="#263238"/>
<path d="M748.281 531.771C748.281 531.771 700.7 560.666 698.978 561.866C696.416 563.661 699.352 572.216 703.797 570.73C705.892 570.037 745.825 559.725 750.123 558.177C754.42 556.63 765.979 547.889 765.979 547.889L748.281 531.771Z" fill="#BA68C8"/>
<path d="M734.147 554.624C734.347 554.624 733.506 552.037 730.957 549.907C728.408 547.778 725.618 547.196 725.618 547.431C725.618 547.666 728.047 548.496 730.41 550.514C732.772 552.532 733.92 554.735 734.147 554.624Z" fill="#263238"/>
<path d="M738.418 551.046C738.618 550.984 737.697 548.756 735.522 546.713C733.346 544.67 730.984 543.742 730.904 543.928C730.824 544.113 732.866 545.289 734.908 547.258C736.95 549.226 738.191 551.158 738.418 551.046Z" fill="#263238"/>
<path d="M742.702 548.496C742.915 548.496 742.702 546.02 740.62 543.643C738.538 541.266 735.975 540.56 735.935 540.758C735.895 540.956 738.097 541.996 739.939 544.138C741.781 546.28 742.462 548.558 742.702 548.496Z" fill="#263238"/>
<path d="M739.886 543.012C740.006 543.012 739.352 541.774 738.805 539.706C738.493 538.508 738.305 537.285 738.244 536.054C738.198 535.328 738.198 534.601 738.244 533.875C738.245 533.551 738.332 533.232 738.498 532.947C738.568 532.852 738.675 532.785 738.796 532.76C738.917 532.735 739.044 532.753 739.152 532.81C739.699 533.008 739.979 533.863 740.233 534.544C740.469 535.224 740.625 535.925 740.7 536.636C740.823 537.874 740.783 539.121 740.58 540.35C740.246 542.442 739.806 543.717 739.939 543.754C740.568 542.734 740.985 541.612 741.167 540.449C741.458 539.189 741.562 537.897 741.474 536.611C741.417 535.842 741.264 535.082 741.02 534.346C740.892 533.953 740.736 533.568 740.553 533.194C740.349 532.73 739.969 532.352 739.486 532.129C739.2 532.003 738.876 531.975 738.571 532.05C738.265 532.125 737.998 532.298 737.817 532.538C737.564 532.936 737.426 533.388 737.417 533.85C737.363 534.609 737.363 535.37 737.417 536.128C737.51 537.39 737.766 538.637 738.178 539.842C738.488 541.003 739.071 542.085 739.886 543.012V543.012Z" fill="#263238"/>
<path d="M739.779 542.541C739.846 542.653 740.953 542.133 742.875 541.699C743.991 541.45 745.132 541.305 746.279 541.266C746.935 541.228 747.594 541.266 748.241 541.377C748.524 541.414 748.786 541.533 748.99 541.718C749.195 541.903 749.329 542.144 749.375 542.405C749.386 542.684 749.317 542.962 749.177 543.209C749.036 543.457 748.829 543.666 748.575 543.816C748.037 544.125 747.429 544.312 746.799 544.361C745.676 544.457 744.543 544.352 743.463 544.051C742.448 543.702 741.409 543.416 740.353 543.197C741.229 543.824 742.225 544.29 743.289 544.571C744.433 544.976 745.657 545.149 746.879 545.079C747.645 545.033 748.386 544.817 749.042 544.448C749.422 544.226 749.731 543.913 749.937 543.543C750.144 543.173 750.24 542.759 750.216 542.343C750.161 541.918 749.958 541.521 749.637 541.213C749.317 540.905 748.897 540.702 748.441 540.635C747.719 540.516 746.983 540.486 746.252 540.548C745.05 540.619 743.862 540.827 742.715 541.167C741.636 541.411 740.632 541.881 739.779 542.541V542.541Z" fill="#263238"/>
<path d="M709.856 569.121C709.856 569.195 710.657 568.675 711.03 567.413C711.412 565.768 711.091 564.051 710.136 562.621C709.667 561.849 709.131 561.112 708.535 560.418C708.08 559.814 707.536 559.272 706.92 558.808C706.485 558.479 705.956 558.273 705.398 558.214C705.011 558.214 704.798 558.289 704.811 558.338C705.453 558.513 706.046 558.817 706.546 559.229C707.045 559.725 707.492 560.264 707.881 560.839C708.418 561.533 708.917 562.252 709.375 562.993C710.223 564.284 710.589 565.798 710.417 567.301C710.265 567.917 710.078 568.524 709.856 569.121V569.121Z" fill="#263238"/>
<path d="M726.94 557.286C727.166 557.286 727.1 555.057 725.271 553.052C723.443 551.046 721.094 550.576 721.08 550.774C721.067 550.972 723.002 551.715 724.617 553.559C726.232 555.404 726.699 557.323 726.94 557.286Z" fill="#263238"/>
<path d="M761.08 549.449C760.343 549.84 759.642 550.287 758.985 550.786C757.101 551.998 755.145 553.11 753.126 554.116C750.106 555.588 746.985 556.874 743.783 557.967C740.18 559.205 736.135 560.381 731.865 561.532C723.296 563.822 715.542 565.915 709.949 567.474L703.276 569.356C702.455 569.551 701.655 569.816 700.887 570.148C701.728 570.041 702.558 569.871 703.369 569.641L710.043 568.007C715.675 566.583 723.389 564.578 732.011 562.287C736.296 561.136 740.353 559.935 744.023 558.635C747.24 557.503 750.362 556.154 753.366 554.599C755.387 553.544 757.319 552.348 759.145 551.021C759.848 550.562 760.497 550.035 761.08 549.449V549.449Z" fill="#263238"/>
<path d="M762.842 550.043C761.573 549.516 760.222 549.182 758.838 549.053C755.461 548.461 751.968 548.855 748.842 550.18C747.141 550.986 745.672 552.158 744.557 553.596C743.663 554.751 742.916 555.997 742.328 557.31C741.704 558.487 741.255 559.736 740.994 561.024C741.698 559.923 742.318 558.777 742.849 557.595C743.983 555.54 745.772 552.532 749.202 550.947C752.201 549.718 755.511 549.289 758.758 549.709C761.267 549.845 762.816 550.167 762.842 550.043Z" fill="#263238"/>
<path d="M847.207 459.496C847.207 459.496 861.474 464.25 861.541 479.106C861.648 507.58 799.586 538.901 799.586 538.901L716.983 488.143L711.805 486.2C711.805 486.2 823.303 447.302 847.207 459.496Z" fill="#263238"/>
<path d="M758.825 513.77C759.586 513.386 760.306 512.934 760.974 512.421C762.308 511.517 764.257 510.155 766.633 508.459C771.357 505.079 777.79 500.263 784.717 494.754C791.644 489.245 797.73 484.07 802.068 480.245C804.23 478.338 805.965 476.766 807.14 475.664C807.785 475.126 808.375 474.534 808.901 473.894C808.195 474.36 807.53 474.877 806.913 475.441L801.668 479.836C797.237 483.55 791.084 488.663 784.17 494.16C777.256 499.657 770.903 504.535 766.272 508.038L760.76 512.148C760.068 512.639 759.421 513.181 758.825 513.77V513.77Z" fill="#455A64"/>
<path d="M823.89 470.118C821.201 469.727 818.449 469.961 815.882 470.799C811.571 471.963 808.675 474.092 808.808 474.241C808.942 474.389 811.958 472.668 816.122 471.542C820.286 470.415 823.89 470.366 823.89 470.118Z" fill="#455A64"/>
<path d="M816.816 465.637C814.847 466.281 813.141 467.475 811.931 469.053C809.729 471.529 809.142 474.191 809.355 474.216C809.569 474.241 810.503 471.913 812.585 469.549C814.667 467.184 816.896 465.847 816.816 465.637Z" fill="#455A64"/>
<path d="M851.744 555.701C851.744 555.614 850.757 555.429 849.609 556.295C848.271 557.467 847.428 559.043 847.233 560.74C846.947 562.423 847.207 564.147 847.98 565.692C848.568 566.856 849.208 567.413 849.315 567.351C849.422 567.289 848.981 566.633 848.568 565.494C848.033 564.017 847.873 562.445 848.101 560.901C848.287 559.368 848.966 557.923 850.049 556.753C850.89 555.862 851.758 555.862 851.744 555.701Z" fill="#263238"/>
<path d="M841.294 419.1L817.804 477.868C817.148 479.506 815.963 480.916 814.41 481.905C812.857 482.893 811.012 483.412 809.128 483.39L679.772 481.805V472.693L727.82 474.315L748.187 415.708C748.526 414.744 749.184 413.903 750.069 413.307C750.954 412.711 752.019 412.39 753.112 412.39L836.556 412.613C837.384 412.627 838.196 412.825 838.924 413.191C839.652 413.557 840.275 414.08 840.74 414.716C841.204 415.352 841.497 416.082 841.593 416.845C841.69 417.608 841.587 418.382 841.294 419.1Z" fill="#E0E0E0"/>
<path d="M841.294 419.1C841.294 419.1 841.294 419.1 841.294 418.914C841.365 418.738 841.418 418.555 841.454 418.37C841.647 417.642 841.647 416.882 841.454 416.154C841.185 415.19 840.592 414.33 839.762 413.698C838.933 413.066 837.908 412.695 836.836 412.638C835.955 412.638 834.981 412.638 833.967 412.638H799.159H774.774H761.067H753.873C752.674 412.528 751.468 412.775 750.43 413.343C749.398 413.946 748.634 414.873 748.281 415.956L727.967 474.464V474.6H727.807L679.759 472.99L679.973 472.792V481.904L679.773 481.718L761.107 482.721L796.462 483.179L804.617 483.278H808.621C809.896 483.348 811.172 483.176 812.372 482.77C813.537 482.377 814.601 481.762 815.495 480.964C816.389 480.167 817.094 479.205 817.564 478.14C818.418 476.011 819.259 473.919 820.086 471.888C826.639 455.584 831.938 442.412 835.595 433.3C837.437 428.769 838.851 425.241 839.826 422.839C840.8 420.437 841.321 419.212 841.321 419.212C841.321 419.212 840.853 420.45 839.906 422.926L835.715 433.3C832.085 442.424 826.84 455.584 820.326 471.926L817.817 478.202C817.333 479.3 816.609 480.293 815.69 481.118C814.771 481.942 813.677 482.581 812.478 482.993C811.237 483.416 809.916 483.601 808.595 483.538H804.591L796.449 483.439L761.094 483.03L679.746 482.052H679.546V472.545H679.759L727.807 474.179L727.607 474.315L747.974 415.819C748.347 414.662 749.164 413.672 750.27 413.034C751.365 412.437 752.636 412.177 753.9 412.291H761.094H774.801L799.185 412.39L833.993 412.539C835.008 412.539 835.969 412.539 836.876 412.539C837.971 412.605 839.014 412.993 839.856 413.644C840.698 414.296 841.295 415.179 841.561 416.166C841.758 416.898 841.758 417.663 841.561 418.394C841.494 418.636 841.405 418.872 841.294 419.1V419.1Z" fill="#263238"/>
<path d="M783.943 441.297C784.944 440.828 786.07 440.636 787.185 440.746C788.3 440.856 789.358 441.262 790.23 441.916C790.966 442.568 791.477 443.408 791.696 444.33C791.914 445.252 791.831 446.213 791.458 447.091C791.052 447.957 790.396 448.7 789.561 449.24C788.727 449.78 787.748 450.095 786.733 450.149C785.655 450.214 784.584 449.951 783.683 449.398C782.782 448.846 782.1 448.036 781.741 447.091C781.14 445.172 781.741 442.313 783.943 441.297Z" fill="white"/>
<path d="M813.506 542.058C813.506 542.058 696.936 472.805 691.798 470.081C687.42 467.766 675.702 461.081 664.157 464.04C652.612 466.998 642.255 476.63 637.076 490.632C634.127 498.654 632.725 512.334 632.071 522.597C631.189 534.886 635.497 547.012 644.083 556.407C647.883 560.789 652.919 564.106 658.631 565.989C659.846 566.336 661.114 566.633 662.408 566.893C684.471 571.337 707.146 562.151 719.546 544.609L722.215 540.771C722.215 540.771 798.558 566.769 799.746 566.41L813.506 542.058Z" fill="#263238"/>
<path d="M697.817 473.919C697.817 473.919 697.71 473.919 697.524 473.758L696.709 473.238C695.989 472.78 694.934 472.111 693.56 471.282C689.677 468.917 685.523 466.962 681.174 465.451C678.171 464.428 675.024 463.815 671.831 463.631C668.19 463.49 664.556 464.042 661.154 465.253C657.378 466.606 653.89 468.567 650.85 471.047C649.223 472.339 647.694 473.733 646.272 475.219C644.835 476.749 643.565 478.407 642.482 480.171C640.337 483.686 638.652 487.427 637.464 491.313C636.356 495.089 635.475 498.815 634.647 502.331C633.107 508.56 632.214 514.911 631.978 521.297C631.895 525.606 632.248 529.912 633.032 534.16C633.286 535.67 633.58 536.822 633.753 537.614L633.94 538.518C633.958 538.62 633.958 538.725 633.94 538.827C633.894 538.732 633.858 538.632 633.833 538.53C633.833 538.295 633.673 537.998 633.58 537.639C633.353 536.859 633.019 535.72 632.725 534.209C631.812 529.958 631.365 525.632 631.391 521.297C631.57 514.883 632.432 508.501 633.967 502.244C634.794 498.704 635.648 495.002 636.743 491.177C637.954 487.241 639.661 483.451 641.828 479.886C642.934 478.076 644.231 476.372 645.698 474.798C647.143 473.288 648.7 471.873 650.356 470.564C653.462 468.048 657.022 466.062 660.874 464.696C664.377 463.464 668.116 462.916 671.858 463.086C675.091 463.307 678.273 463.958 681.307 465.018C685.677 466.57 689.831 468.602 693.68 471.071C695.014 471.938 696.069 472.644 696.763 473.139L697.537 473.708C697.641 473.765 697.736 473.836 697.817 473.919V473.919Z" fill="#455A64"/>
<path d="M669.135 522.51C669.343 522.612 669.557 522.703 669.776 522.783L671.684 523.476L679.078 526.15L706.573 535.757C718.251 539.793 732.252 544.609 747.947 549.907C763.643 555.206 781.034 561.049 799.612 566.843L799.959 566.942L800.119 566.657C803.029 561.483 806.112 556.035 809.235 550.501L813.88 542.244L814.067 541.922L813.733 541.736L724.724 489.319L698.031 473.671L690.77 469.462L688.875 468.397C688.664 468.271 688.445 468.155 688.221 468.051C688.221 468.051 688.421 468.199 688.835 468.459L690.69 469.598L697.871 473.919L724.47 489.765L813.333 542.393L813.186 541.885C811.718 544.497 810.143 547.295 808.541 550.118L799.439 566.274L799.932 566.076C781.367 560.257 763.963 554.475 748.254 549.226L706.88 535.249L679.292 525.865L671.845 523.389L669.909 522.758L669.135 522.51Z" fill="#455A64"/>
<path d="M675.168 292.75C672.982 289.109 671.245 285.251 669.989 281.249C668.736 277.215 668.981 272.907 670.683 269.017C671.765 266.801 673.473 264.858 674.327 262.555C675.488 259.386 675.008 255.647 677.13 252.936C680.426 248.689 687.5 249.68 692.612 247.464C696.616 245.731 699.379 242.004 703.556 240.754C707.213 239.664 711.204 240.754 714.727 242.116C718.251 243.477 721.708 245.297 725.512 245.755C728.245 245.898 730.986 245.898 733.72 245.755C736.491 245.648 739.201 246.535 741.287 248.231C743.209 250.026 743.61 253.357 741.528 255.003C746.319 254.248 750.87 258.717 750.763 263.186C750.657 267.656 747.04 271.654 742.622 273.536C738.204 275.418 733.173 275.529 728.328 275.17C714.621 274.18 700.847 269.352 691.518 259.992" fill="#BA68C8"/>
<path d="M678.117 276.842L668.775 339.794C668.397 342.33 668.579 344.912 669.31 347.381C670.041 349.851 671.306 352.156 673.027 354.158C674.749 356.16 676.891 357.817 679.324 359.027C681.757 360.237 684.43 360.976 687.18 361.199V361.199C692.394 361.619 697.583 360.163 701.673 357.132C705.762 354.102 708.439 349.729 709.149 344.919C709.843 340.178 710.483 336.253 710.483 335.746C710.483 335.746 727.981 336.439 731.584 320.741C733.319 313.152 735.588 297.219 737.35 282.846C738.287 275.398 736.173 267.896 731.426 261.826C726.68 255.756 719.648 251.562 711.724 250.076L710.083 249.779C692.225 247.439 680.119 260.215 678.117 276.842Z" fill="#FFBE9D"/>
<path d="M710.643 335.498C702.781 334.187 695.516 330.74 689.769 325.594C689.769 325.594 692.558 337.9 709.789 339.621L710.643 335.498Z" fill="#EB996E"/>
<path d="M729.823 296.229C729.702 296.816 729.339 297.337 728.81 297.679C728.281 298.022 727.629 298.159 726.993 298.061C726.682 298.026 726.381 297.934 726.109 297.79C725.836 297.646 725.597 297.453 725.406 297.222C725.215 296.992 725.075 296.728 724.994 296.447C724.914 296.166 724.895 295.873 724.938 295.585C725.055 294.997 725.415 294.476 725.941 294.131C726.467 293.787 727.118 293.646 727.754 293.74C728.068 293.774 728.371 293.865 728.646 294.009C728.921 294.153 729.162 294.347 729.355 294.579C729.548 294.811 729.689 295.077 729.769 295.36C729.849 295.643 729.867 295.939 729.823 296.229V296.229Z" fill="#263238"/>
<path d="M732.118 289.89C731.758 290.125 730.196 288.528 727.58 288.058C724.964 287.587 722.802 288.429 722.589 288.058C722.482 287.897 722.896 287.426 723.923 287.018C725.184 286.511 726.582 286.377 727.927 286.634C729.287 286.879 730.526 287.521 731.464 288.466C732.145 289.209 732.305 289.791 732.118 289.89Z" fill="#263238"/>
<path d="M705.505 292.329C705.385 292.917 705.021 293.437 704.492 293.78C703.964 294.122 703.312 294.259 702.675 294.161C702.363 294.128 702.062 294.037 701.788 293.893C701.515 293.75 701.275 293.557 701.084 293.326C700.892 293.095 700.752 292.831 700.673 292.549C700.593 292.267 700.575 291.974 700.62 291.685C700.737 291.099 701.098 290.578 701.624 290.235C702.151 289.893 702.802 289.755 703.436 289.853C703.749 289.886 704.051 289.978 704.325 290.121C704.599 290.264 704.839 290.457 705.032 290.687C705.225 290.918 705.366 291.182 705.447 291.464C705.528 291.746 705.548 292.04 705.505 292.329Z" fill="#263238"/>
<path d="M706.399 285.594C706.025 285.829 704.464 284.232 701.848 283.75C699.232 283.267 697.07 284.133 696.856 283.75C696.75 283.589 697.163 283.118 698.191 282.71C699.451 282.203 700.849 282.069 702.195 282.326C703.551 282.572 704.789 283.209 705.732 284.146C706.412 284.913 706.573 285.483 706.399 285.594Z" fill="#263238"/>
<path d="M711.991 305.291C713.452 305.141 714.928 305.166 716.382 305.365C717.063 305.427 717.717 305.365 717.917 305.018C718.13 304.394 718.13 303.724 717.917 303.1C717.624 301.49 717.303 299.806 716.97 298.036C715.635 290.831 714.888 284.963 715.195 284.913C715.502 284.864 716.809 290.67 718.104 297.875C718.398 299.646 718.691 301.329 718.972 302.951C719.221 303.77 719.16 304.645 718.798 305.427C718.649 305.632 718.451 305.802 718.22 305.924C717.988 306.047 717.729 306.118 717.463 306.133C717.075 306.155 716.684 306.13 716.302 306.058C714.836 305.973 713.388 305.715 711.991 305.291V305.291Z" fill="#263238"/>
<path d="M703.957 305.538C704.384 305.538 703.823 308.225 705.852 310.49C707.88 312.756 710.95 313.078 710.883 313.449C710.883 313.623 710.109 313.833 708.828 313.635C707.163 313.344 705.661 312.52 704.584 311.308C703.581 310.136 703.103 308.65 703.249 307.16C703.369 306.083 703.77 305.489 703.957 305.538Z" fill="#263238"/>
<path d="M709.109 276.235C708.708 276.842 706.172 276.049 703.036 275.826C699.899 275.604 697.27 275.913 696.99 275.257C696.869 274.935 697.43 274.403 698.565 273.945C700.066 273.418 701.677 273.213 703.276 273.344C704.875 273.475 706.421 273.938 707.801 274.7C708.828 275.319 709.282 275.95 709.109 276.235Z" fill="#BA68C8"/>
<path d="M732.732 282.71C732.145 283.18 730.477 282.276 728.328 281.843C726.179 281.41 724.324 281.472 723.95 280.828C723.83 280.506 724.23 280.011 725.151 279.59C726.358 279.166 727.674 279.085 728.931 279.356C730.188 279.627 731.33 280.239 732.212 281.113C732.799 281.868 732.932 282.487 732.732 282.71Z" fill="#BA68C8"/>
<path d="M676.996 288.751C676.729 288.578 666.025 283.391 664.077 294.223C662.128 305.056 674.26 304.635 674.327 304.325C674.394 304.016 676.996 288.751 676.996 288.751Z" fill="#FFBE9D"/>
<path d="M671.498 299.67C671.498 299.67 671.271 299.769 670.91 299.856C670.39 299.977 669.84 299.906 669.376 299.658C668.214 299.039 667.507 297.07 667.801 295.102C667.941 294.17 668.301 293.278 668.855 292.49C669.025 292.166 669.276 291.885 669.587 291.669C669.898 291.454 670.26 291.311 670.643 291.252C670.888 291.232 671.132 291.291 671.334 291.42C671.536 291.549 671.684 291.739 671.751 291.958C671.858 292.292 671.751 292.49 671.751 292.515C671.751 292.539 672.032 292.378 672.018 291.92C672.002 291.641 671.885 291.375 671.685 291.165C671.402 290.89 671.013 290.73 670.603 290.72C670.108 290.733 669.624 290.864 669.199 291.1C668.774 291.336 668.421 291.67 668.174 292.069C667.509 292.929 667.083 293.929 666.933 294.978C666.613 297.17 667.454 299.398 669.055 300.116C669.356 300.247 669.684 300.315 670.016 300.315C670.348 300.315 670.677 300.247 670.977 300.116C671.431 299.93 671.538 299.695 671.498 299.67Z" fill="#EB996E"/>
<path d="M740.74 268.225C738.738 272.224 728.434 273.771 720.88 271.654C713.927 269.711 711.391 265.613 706.973 262.035C704.17 259.77 704.17 259.77 699.592 259.336C695.895 258.977 692.919 262.394 690.129 264.66C691.691 273.326 687.567 281.794 683.536 289.68C683.197 290.601 682.535 291.39 681.654 291.92C680.079 292.638 678.184 291.5 677.237 290.113C675.907 287.78 675.337 285.139 675.595 282.512C675.632 276.52 676.952 270.595 679.479 265.081C682.011 259.526 686.255 254.789 691.678 251.463C698.626 247.523 706.954 246.244 714.901 247.897C722.801 249.593 729.924 253.557 735.255 259.225C737.858 261.733 739.744 264.806 740.74 268.163" fill="#BA68C8"/>
<path d="M717.036 294.396C717.143 294.396 717.036 293.468 717.57 291.92C718.253 289.692 719.707 287.735 721.708 286.349C723.172 285.345 724.883 284.693 726.686 284.453C728.489 284.214 730.328 284.393 732.038 284.975C734.056 285.661 735.808 286.89 737.07 288.504C738.431 290.225 739.164 292.305 739.164 294.44C739.164 296.575 738.431 298.654 737.07 300.376C735.808 301.99 734.056 303.218 732.038 303.904C730.327 304.487 728.487 304.666 726.684 304.424C724.88 304.181 723.17 303.526 721.708 302.518C719.705 301.139 718.251 299.185 717.57 296.959C717.103 295.374 717.143 294.483 717.036 294.483C717.005 294.709 717.005 294.938 717.036 295.164C717.032 295.81 717.112 296.455 717.277 297.083C717.84 299.459 719.286 301.575 721.361 303.062C722.591 303.934 723.997 304.569 725.496 304.929C726.995 305.29 728.556 305.369 730.088 305.161C731.62 304.953 733.092 304.463 734.417 303.72C735.742 302.977 736.894 301.996 737.804 300.834C739.302 298.973 740.111 296.713 740.111 294.39C740.111 292.068 739.302 289.807 737.804 287.946C736.885 286.785 735.725 285.806 734.392 285.068C733.058 284.329 731.579 283.847 730.041 283.648C728.503 283.45 726.937 283.539 725.437 283.912C723.937 284.284 722.533 284.932 721.307 285.817C719.233 287.3 717.788 289.412 717.223 291.784C717.06 292.417 716.979 293.065 716.983 293.716C716.967 293.944 716.985 294.173 717.036 294.396Z" fill="#263238"/>
<path d="M689.342 289.915C689.449 289.915 689.342 288.986 689.876 287.439C690.555 285.21 692.01 283.251 694.013 281.868C695.477 280.861 697.188 280.208 698.991 279.968C700.795 279.729 702.634 279.909 704.344 280.494C706.361 281.175 708.113 282.399 709.375 284.01C710.737 285.733 711.472 287.815 711.472 289.952C711.472 292.089 710.737 294.171 709.375 295.894C708.118 297.509 706.364 298.734 704.344 299.41C702.634 299.995 700.795 300.175 698.991 299.936C697.188 299.696 695.477 299.043 694.013 298.036C692.01 296.653 690.555 294.694 689.876 292.465C689.409 290.893 689.449 289.989 689.342 289.989C689.311 290.211 689.311 290.436 689.342 290.658C689.338 291.308 689.419 291.957 689.582 292.589C690.146 294.965 691.591 297.081 693.666 298.568C694.893 299.452 696.299 300.099 697.8 300.471C699.301 300.842 700.867 300.932 702.405 300.733C703.944 300.535 705.424 300.052 706.759 299.315C708.094 298.578 709.255 297.6 710.176 296.439C711.671 294.575 712.479 292.313 712.479 289.989C712.479 287.665 711.671 285.404 710.176 283.539C709.258 282.378 708.098 281.399 706.764 280.66C705.431 279.922 703.951 279.439 702.413 279.241C700.875 279.042 699.31 279.132 697.809 279.505C696.309 279.877 694.905 280.525 693.68 281.41C691.607 282.899 690.162 285.015 689.596 287.389C689.432 288.022 689.351 288.67 689.355 289.321C689.325 289.517 689.321 289.717 689.342 289.915Z" fill="#263238"/>
<path d="M712.165 290.286C712.285 290.497 713.766 289.853 715.488 290.348C717.21 290.843 718.077 292.118 718.304 291.995C718.531 291.871 718.304 291.537 717.97 290.992C717.439 290.279 716.662 289.755 715.767 289.506C714.873 289.256 713.913 289.295 713.046 289.618C712.392 289.865 712.098 290.187 712.165 290.286Z" fill="#263238"/>
<path d="M673.66 287.142C673.66 287.389 677.384 287.525 681.975 287.476C686.566 287.426 690.276 287.166 690.276 286.919C690.276 286.671 686.553 286.535 681.961 286.597C677.37 286.659 673.66 286.894 673.66 287.142Z" fill="#263238"/>
<path d="M746.252 257.888C746.251 258.238 746.188 258.585 746.065 258.915C745.734 259.83 745.128 260.638 744.317 261.243C743.12 262.154 741.655 262.711 740.113 262.84C738.253 262.979 736.381 262.887 734.547 262.567C731.214 262.111 727.909 261.495 724.644 260.723C723.389 260.413 722.375 260.153 721.694 259.955L720.894 259.72L720.627 259.621C720.627 259.621 720.734 259.621 720.907 259.621L721.721 259.807L724.684 260.488C727.193 261.045 730.69 261.726 734.587 262.27C736.399 262.587 738.248 262.682 740.086 262.555C741.585 262.441 743.015 261.92 744.197 261.057C744.992 260.482 745.602 259.716 745.959 258.841C746.199 258.259 746.212 257.875 746.252 257.888Z" fill="white"/>
<path d="M748.841 260.339C748.677 261.372 748.339 262.374 747.84 263.31C746.683 265.609 744.809 267.532 742.461 268.832C740.112 270.132 737.398 270.749 734.667 270.602C733.547 270.567 732.439 270.371 731.384 270.02C731.682 270.053 731.976 270.106 732.265 270.181C733.063 270.319 733.87 270.402 734.681 270.429C737.363 270.52 740.015 269.887 742.318 268.609C744.62 267.33 746.474 265.459 747.654 263.224C748.026 262.554 748.33 261.854 748.561 261.131C748.635 260.862 748.729 260.597 748.841 260.339V260.339Z" fill="white"/>
</svg>
